<?xml version="1.0" encoding="UTF-8" standalone="no"?><svg xmlns="http://www.w3.org/2000/svg" xmlns:xlink="http://www.w3.org/1999/xlink" contentScriptType="application/ecmascript" contentStyleType="text/css" height="592px" preserveAspectRatio="none" style="width:1056px;height:592px;" version="1.1" viewBox="0 0 1056 592" width="1056px" zoomAndPan="magnify"><defs><filter height="300%" id="f1jvk9qilzciih" width="300%" x="-1" y="-1"><feGaussianBlur result="blurOut" stdDeviation="2.0"/><feColorMatrix in="blurOut" result="blurOut2" type="matrix" values="0 0 0 0 0 0 0 0 0 0 0 0 0 0 0 0 0 0 .4 0"/><feOffset dx="4.0" dy="4.0" in="blurOut2" result="blurOut3"/><feBlend in="SourceGraphic" in2="blurOut3" mode="normal"/></filter></defs><g><!--MD5=[11a9021428bc7d3f708de961744e4db9]
cluster geometry_shapes--><polygon fill="#FFFFFF" filter="url(#f1jvk9qilzciih)" points="22,24,168,24,175,46.2969,1034,46.2969,1034,544,22,544,22,24" style="stroke: #000000; stroke-width: 1.5;"/><line style="stroke: #000000; stroke-width: 1.5;" x1="22" x2="175" y1="46.2969" y2="46.2969"/><text fill="#000000" font-family="sans-serif" font-size="14" font-weight="bold" lengthAdjust="spacingAndGlyphs" textLength="140" x="26" y="38.9951">geometry_shapes</text><!--MD5=[156b21dc1f4e76fa01a9d6723e103c5e]
cluster geometry_shapes.Shape--><polygon fill="#FFFFFF" filter="url(#f1jvk9qilzciih)" points="317,67,372,67,379,89.2969,687,89.2969,687,243,317,243,317,67" style="stroke: #000000; stroke-width: 1.5;"/><line style="stroke: #000000; stroke-width: 1.5;" x1="317" x2="379" y1="89.2969" y2="89.2969"/><text fill="#000000" font-family="sans-serif" font-size="14" font-weight="bold" lengthAdjust="spacingAndGlyphs" textLength="49" x="321" y="81.9951">Shape</text><!--MD5=[10de8feead50549be551a1a7f63b4f25]
cluster geometry_shapes.Circle--><polygon fill="#FFFFFF" filter="url(#f1jvk9qilzciih)" points="46,299,97,299,104,321.2969,252,321.2969,252,488,46,488,46,299" style="stroke: #000000; stroke-width: 1.5;"/><line style="stroke: #000000; stroke-width: 1.5;" x1="46" x2="104" y1="321.2969" y2="321.2969"/><text fill="#000000" font-family="sans-serif" font-size="14" font-weight="bold" lengthAdjust="spacingAndGlyphs" textLength="45" x="50" y="313.9951">Circle</text><!--MD5=[347179c8e315476df35dc6e766824529]
cluster geometry_shapes.Rectangle--><polygon fill="#FFFFFF" filter="url(#f1jvk9qilzciih)" points="276,286.5,360,286.5,367,308.7969,482,308.7969,482,500.5,276,500.5,276,286.5" style="stroke: #000000; stroke-width: 1.5;"/><line style="stroke: #000000; stroke-width: 1.5;" x1="276" x2="367" y1="308.7969" y2="308.7969"/><text fill="#000000" font-family="sans-serif" font-size="14" font-weight="bold" lengthAdjust="spacingAndGlyphs" textLength="78" x="280" y="301.4951">Rectangle</text><!--MD5=[c057c84db890e78babc74d44c3919382]
cluster geometry_shapes.Sphere--><polygon fill="#FFFFFF" filter="url(#f1jvk9qilzciih)" points="506,286.5,569,286.5,576,308.7969,746,308.7969,746,500.5,506,500.5,506,286.5" style="stroke: #000000; stroke-width: 1.5;"/><line style="stroke: #000000; stroke-width: 1.5;" x1="506" x2="576" y1="308.7969" y2="308.7969"/><text fill="#000000" font-family="sans-serif" font-size="14" font-weight="bold" lengthAdjust="spacingAndGlyphs" textLength="57" x="510" y="301.4951">Sphere</text><!--MD5=[252a6be53cfb5d77eee064331762a599]
cluster geometry_shapes.Cube--><polygon fill="#FFFFFF" filter="url(#f1jvk9qilzciih)" points="770,267,817,267,824,289.2969,1010,289.2969,1010,520,770,520,770,267" style="stroke: #000000; stroke-width: 1.5;"/><line style="stroke: #000000; stroke-width: 1.5;" x1="770" x2="824" y1="289.2969" y2="289.2969"/><text fill="#000000" font-family="sans-serif" font-size="14" font-weight="bold" lengthAdjust="spacingAndGlyphs" textLength="41" x="774" y="281.9951">Cube</text><!--MD5=[fd074987427ba837a991593c94943793]
class geometry_shapes.Shape.Shape--><rect fill="#FEFECE" filter="url(#f1jvk9qilzciih)" height="124.8281" id="geometry_shapes.Shape.Shape" style="stroke: #A80036; stroke-width: 1.5;" width="337" x="333.5" y="102"/><ellipse cx="477.75" cy="118" fill="#ADD1B2" rx="11" ry="11" style="stroke: #A80036; stroke-width: 1.0;"/><path d="M480.7188,123.6406 Q480.1406,123.9375 479.5,124.0781 Q478.8594,124.2344 478.1563,124.2344 Q475.6563,124.2344 474.3281,122.5938 Q473.0156,120.9375 473.0156,117.8125 Q473.0156,114.6875 474.3281,113.0313 Q475.6563,111.375 478.1563,111.375 Q478.8594,111.375 479.5,111.5313 Q480.1563,111.6875 480.7188,111.9844 L480.7188,114.7031 Q480.0938,114.125 479.5,113.8594 Q478.9063,113.5781 478.2813,113.5781 Q476.9375,113.5781 476.25,114.6563 Q475.5625,115.7188 475.5625,117.8125 Q475.5625,119.9063 476.25,120.9844 Q476.9375,122.0469 478.2813,122.0469 Q478.9063,122.0469 479.5,121.7813 Q480.0938,121.5 480.7188,120.9219 L480.7188,123.6406 Z "/><text fill="#000000" font-family="sans-serif" font-size="12" lengthAdjust="spacingAndGlyphs" textLength="40" x="498.25" y="122.1543">Shape</text><line style="stroke: #A80036; stroke-width: 1.5;" x1="334.5" x2="669.5" y1="134" y2="134"/><line style="stroke: #A80036; stroke-width: 1.5;" x1="334.5" x2="669.5" y1="142" y2="142"/><ellipse cx="344.5" cy="153" fill="#84BE84" rx="3" ry="3" style="stroke: #038048; stroke-width: 1.0;"/><text fill="#000000" font-family="sans-serif" font-size="11" lengthAdjust="spacingAndGlyphs" textLength="214" x="353.5" y="156.2104">translate(x: nr, y: nr, *args: nr) : void</text><ellipse cx="344.5" cy="165.8047" fill="#84BE84" rx="3" ry="3" style="stroke: #038048; stroke-width: 1.0;"/><text fill="#000000" font-family="sans-serif" font-size="11" lengthAdjust="spacingAndGlyphs" textLength="172" x="353.5" y="169.0151">isGreater(other: Shape) : bool</text><ellipse cx="344.5" cy="178.6094" fill="#84BE84" rx="3" ry="3" style="stroke: #038048; stroke-width: 1.0;"/><text fill="#000000" font-family="sans-serif" font-size="11" lengthAdjust="spacingAndGlyphs" textLength="155" x="353.5" y="181.8198">isLess(other: Shape) : bool</text><rect fill="#F24D5C" height="6" style="stroke: #C82930; stroke-width: 1.0;" width="6" x="341.5" y="188.4141"/><text fill="#000000" font-family="sans-serif" font-size="11" lengthAdjust="spacingAndGlyphs" textLength="311" x="353.5" y="194.6245">_check_operand_type(calling: Shape, other: Any) : bool</text><rect fill="#F24D5C" height="6" style="stroke: #C82930; stroke-width: 1.0;" width="6" x="341.5" y="201.2188"/><text fill="#000000" font-family="sans-serif" font-size="11" lengthAdjust="spacingAndGlyphs" textLength="156" x="353.5" y="207.4292">_isValueOk(value: nr) : bool</text><rect fill="#F24D5C" height="6" style="stroke: #C82930; stroke-width: 1.0;" width="6" x="341.5" y="214.0234"/><text fill="#000000" font-family="sans-serif" font-size="11" lengthAdjust="spacingAndGlyphs" textLength="179" x="353.5" y="220.2339">_isSizeValueOk(value: nr) : bool</text><!--MD5=[dc970f2037899fe0bc6f013550eb2046]
class geometry_shapes.Circle.Circle--><rect fill="#FEFECE" filter="url(#f1jvk9qilzciih)" height="137.6328" id="geometry_shapes.Circle.Circle" style="stroke: #A80036; stroke-width: 1.5;" width="174" x="62" y="334"/><ellipse cx="127.75" cy="350" fill="#ADD1B2" rx="11" ry="11" style="stroke: #A80036; stroke-width: 1.0;"/><path d="M130.7188,355.6406 Q130.1406,355.9375 129.5,356.0781 Q128.8594,356.2344 128.1563,356.2344 Q125.6563,356.2344 124.3281,354.5938 Q123.0156,352.9375 123.0156,349.8125 Q123.0156,346.6875 124.3281,345.0313 Q125.6563,343.375 128.1563,343.375 Q128.8594,343.375 129.5,343.5313 Q130.1563,343.6875 130.7188,343.9844 L130.7188,346.7031 Q130.0938,346.125 129.5,345.8594 Q128.9063,345.5781 128.2813,345.5781 Q126.9375,345.5781 126.25,346.6563 Q125.5625,347.7188 125.5625,349.8125 Q125.5625,351.9063 126.25,352.9844 Q126.9375,354.0469 128.2813,354.0469 Q128.9063,354.0469 129.5,353.7813 Q130.0938,353.5 130.7188,352.9219 L130.7188,355.6406 Z "/><text fill="#000000" font-family="sans-serif" font-size="12" lengthAdjust="spacingAndGlyphs" textLength="34" x="148.25" y="354.1543">Circle</text><line style="stroke: #A80036; stroke-width: 1.5;" x1="63" x2="235" y1="366" y2="366"/><text fill="#000000" font-family="sans-serif" font-size="11" lengthAdjust="spacingAndGlyphs" textLength="26" x="68" y="380.2104">x: nr</text><text fill="#000000" font-family="sans-serif" font-size="11" lengthAdjust="spacingAndGlyphs" textLength="26" x="68" y="393.0151">y: nr</text><text fill="#000000" font-family="sans-serif" font-size="11" lengthAdjust="spacingAndGlyphs" textLength="65" x="68" y="405.8198">radius: +nr</text><text fill="#000000" font-family="sans-serif" font-size="11" lengthAdjust="spacingAndGlyphs" textLength="110" x="68" y="418.6245">circumference: +nr</text><text fill="#000000" font-family="sans-serif" font-size="11" lengthAdjust="spacingAndGlyphs" textLength="55" x="68" y="431.4292">area: +nr</text><line style="stroke: #A80036; stroke-width: 1.5;" x1="63" x2="235" y1="438.0234" y2="438.0234"/><ellipse cx="73" cy="449.0234" fill="#84BE84" rx="3" ry="3" style="stroke: #038048; stroke-width: 1.0;"/><text fill="#000000" font-family="sans-serif" font-size="11" lengthAdjust="spacingAndGlyphs" textLength="148" x="82" y="452.2339">isInside(x: nr, y: nr) : bool</text><ellipse cx="73" cy="461.8281" fill="#84BE84" rx="3" ry="3" style="stroke: #038048; stroke-width: 1.0;"/><text fill="#000000" font-family="sans-serif" font-size="11" lengthAdjust="spacingAndGlyphs" textLength="114" x="82" y="465.0386">isUnityCircle() : bool</text><!--MD5=[61ecf50e5304e232c428298f2cedf035]
class geometry_shapes.Rectangle.Rectangle--><rect fill="#FEFECE" filter="url(#f1jvk9qilzciih)" height="163.2422" id="geometry_shapes.Rectangle.Rectangle" style="stroke: #A80036; stroke-width: 1.5;" width="174" x="292" y="321.5"/><ellipse cx="343.25" cy="337.5" fill="#ADD1B2" rx="11" ry="11" style="stroke: #A80036; stroke-width: 1.0;"/><path d="M346.2188,343.1406 Q345.6406,343.4375 345,343.5781 Q344.3594,343.7344 343.6563,343.7344 Q341.1563,343.7344 339.8281,342.0938 Q338.5156,340.4375 338.5156,337.3125 Q338.5156,334.1875 339.8281,332.5313 Q341.1563,330.875 343.6563,330.875 Q344.3594,330.875 345,331.0313 Q345.6563,331.1875 346.2188,331.4844 L346.2188,334.2031 Q345.5938,333.625 345,333.3594 Q344.4063,333.0781 343.7813,333.0781 Q342.4375,333.0781 341.75,334.1563 Q341.0625,335.2188 341.0625,337.3125 Q341.0625,339.4063 341.75,340.4844 Q342.4375,341.5469 343.7813,341.5469 Q344.4063,341.5469 345,341.2813 Q345.5938,341 346.2188,340.4219 L346.2188,343.1406 Z "/><text fill="#000000" font-family="sans-serif" font-size="12" lengthAdjust="spacingAndGlyphs" textLength="63" x="363.75" y="341.6543">Rectangle</text><line style="stroke: #A80036; stroke-width: 1.5;" x1="293" x2="465" y1="353.5" y2="353.5"/><text fill="#000000" font-family="sans-serif" font-size="11" lengthAdjust="spacingAndGlyphs" textLength="26" x="298" y="367.7104">x: nr</text><text fill="#000000" font-family="sans-serif" font-size="11" lengthAdjust="spacingAndGlyphs" textLength="26" x="298" y="380.5151">y: nr</text><text fill="#000000" font-family="sans-serif" font-size="11" lengthAdjust="spacingAndGlyphs" textLength="51" x="298" y="393.3198">side1: nr</text><text fill="#000000" font-family="sans-serif" font-size="11" lengthAdjust="spacingAndGlyphs" textLength="51" x="298" y="406.1245">side2: nr</text><text fill="#000000" font-family="sans-serif" font-size="11" lengthAdjust="spacingAndGlyphs" textLength="110" x="298" y="418.9292">circumference: +nr</text><text fill="#000000" font-family="sans-serif" font-size="11" lengthAdjust="spacingAndGlyphs" textLength="55" x="298" y="431.7339">area: +nr</text><line style="stroke: #A80036; stroke-width: 1.5;" x1="293" x2="465" y1="438.3281" y2="438.3281"/><ellipse cx="303" cy="449.3281" fill="#84BE84" rx="3" ry="3" style="stroke: #038048; stroke-width: 1.0;"/><text fill="#000000" font-family="sans-serif" font-size="11" lengthAdjust="spacingAndGlyphs" textLength="148" x="312" y="452.5386">isInside(x: nr, y: nr) : bool</text><ellipse cx="303" cy="462.1328" fill="#84BE84" rx="3" ry="3" style="stroke: #038048; stroke-width: 1.0;"/><text fill="#000000" font-family="sans-serif" font-size="11" lengthAdjust="spacingAndGlyphs" textLength="95" x="312" y="465.3433">isSquare() : bool</text><ellipse cx="303" cy="474.9375" fill="#84BE84" rx="3" ry="3" style="stroke: #038048; stroke-width: 1.0;"/><text fill="#000000" font-family="sans-serif" font-size="11" lengthAdjust="spacingAndGlyphs" textLength="115" x="312" y="478.1479">draw(ax: Axis) : void</text><!--MD5=[8db4a89e46803c06449c6933b1235f1b]
class geometry_shapes.Sphere.Sphere--><rect fill="#FEFECE" filter="url(#f1jvk9qilzciih)" height="163.2422" id="geometry_shapes.Sphere.Sphere" style="stroke: #A80036; stroke-width: 1.5;" width="207" x="522.5" y="321.5"/><ellipse cx="599.25" cy="337.5" fill="#ADD1B2" rx="11" ry="11" style="stroke: #A80036; stroke-width: 1.0;"/><path d="M602.2188,343.1406 Q601.6406,343.4375 601,343.5781 Q600.3594,343.7344 599.6563,343.7344 Q597.1563,343.7344 595.8281,342.0938 Q594.5156,340.4375 594.5156,337.3125 Q594.5156,334.1875 595.8281,332.5313 Q597.1563,330.875 599.6563,330.875 Q600.3594,330.875 601,331.0313 Q601.6563,331.1875 602.2188,331.4844 L602.2188,334.2031 Q601.5938,333.625 601,333.3594 Q600.4063,333.0781 599.7813,333.0781 Q598.4375,333.0781 597.75,334.1563 Q597.0625,335.2188 597.0625,337.3125 Q597.0625,339.4063 597.75,340.4844 Q598.4375,341.5469 599.7813,341.5469 Q600.4063,341.5469 601,341.2813 Q601.5938,341 602.2188,340.4219 L602.2188,343.1406 Z "/><text fill="#000000" font-family="sans-serif" font-size="12" lengthAdjust="spacingAndGlyphs" textLength="45" x="619.75" y="341.6543">Sphere</text><line style="stroke: #A80036; stroke-width: 1.5;" x1="523.5" x2="728.5" y1="353.5" y2="353.5"/><text fill="#000000" font-family="sans-serif" font-size="11" lengthAdjust="spacingAndGlyphs" textLength="26" x="528.5" y="367.7104">x: nr</text><text fill="#000000" font-family="sans-serif" font-size="11" lengthAdjust="spacingAndGlyphs" textLength="26" x="528.5" y="380.5151">y: nr</text><text fill="#000000" font-family="sans-serif" font-size="11" lengthAdjust="spacingAndGlyphs" textLength="25" x="528.5" y="393.3198">z: nr</text><text fill="#000000" font-family="sans-serif" font-size="11" lengthAdjust="spacingAndGlyphs" textLength="65" x="528.5" y="406.1245">radius: +nr</text><text fill="#000000" font-family="sans-serif" font-size="11" lengthAdjust="spacingAndGlyphs" textLength="110" x="528.5" y="418.9292">circumference: +nr</text><text fill="#000000" font-family="sans-serif" font-size="11" lengthAdjust="spacingAndGlyphs" textLength="55" x="528.5" y="431.7339">area: +nr</text><text fill="#000000" font-family="sans-serif" font-size="11" lengthAdjust="spacingAndGlyphs" textLength="70" x="528.5" y="444.5386">volume: +nr</text><line style="stroke: #A80036; stroke-width: 1.5;" x1="523.5" x2="728.5" y1="451.1328" y2="451.1328"/><ellipse cx="533.5" cy="462.1328" fill="#84BE84" rx="3" ry="3" style="stroke: #038048; stroke-width: 1.0;"/><text fill="#000000" font-family="sans-serif" font-size="11" lengthAdjust="spacingAndGlyphs" textLength="181" x="542.5" y="465.3433">isInside(x: nr, y: nr, z: nr) : bool</text><ellipse cx="533.5" cy="474.9375" fill="#84BE84" rx="3" ry="3" style="stroke: #038048; stroke-width: 1.0;"/><text fill="#000000" font-family="sans-serif" font-size="11" lengthAdjust="spacingAndGlyphs" textLength="123" x="542.5" y="478.1479">isUnitySphere() : bool</text><!--MD5=[f3bd4cb2529738d5075283c2b0094908]
class geometry_shapes.Cube.Cube--><rect fill="#FEFECE" filter="url(#f1jvk9qilzciih)" height="201.6563" id="geometry_shapes.Cube.Cube" style="stroke: #A80036; stroke-width: 1.5;" width="207" x="786.5" y="302"/><ellipse cx="869.75" cy="318" fill="#ADD1B2" rx="11" ry="11" style="stroke: #A80036; stroke-width: 1.0;"/><path d="M872.7188,323.6406 Q872.1406,323.9375 871.5,324.0781 Q870.8594,324.2344 870.1563,324.2344 Q867.6563,324.2344 866.3281,322.5938 Q865.0156,320.9375 865.0156,317.8125 Q865.0156,314.6875 866.3281,313.0313 Q867.6563,311.375 870.1563,311.375 Q870.8594,311.375 871.5,311.5313 Q872.1563,311.6875 872.7188,311.9844 L872.7188,314.7031 Q872.0938,314.125 871.5,313.8594 Q870.9063,313.5781 870.2813,313.5781 Q868.9375,313.5781 868.25,314.6563 Q867.5625,315.7188 867.5625,317.8125 Q867.5625,319.9063 868.25,320.9844 Q868.9375,322.0469 870.2813,322.0469 Q870.9063,322.0469 871.5,321.7813 Q872.0938,321.5 872.7188,320.9219 L872.7188,323.6406 Z "/><text fill="#000000" font-family="sans-serif" font-size="12" lengthAdjust="spacingAndGlyphs" textLength="32" x="890.25" y="322.1543">Cube</text><line style="stroke: #A80036; stroke-width: 1.5;" x1="787.5" x2="992.5" y1="334" y2="334"/><text fill="#000000" font-family="sans-serif" font-size="11" lengthAdjust="spacingAndGlyphs" textLength="26" x="792.5" y="348.2104">x: nr</text><text fill="#000000" font-family="sans-serif" font-size="11" lengthAdjust="spacingAndGlyphs" textLength="26" x="792.5" y="361.0151">y: nr</text><text fill="#000000" font-family="sans-serif" font-size="11" lengthAdjust="spacingAndGlyphs" textLength="25" x="792.5" y="373.8198">z: nr</text><text fill="#000000" font-family="sans-serif" font-size="11" lengthAdjust="spacingAndGlyphs" textLength="50" x="792.5" y="386.6245">width: nr</text><text fill="#000000" font-family="sans-serif" font-size="11" lengthAdjust="spacingAndGlyphs" textLength="55" x="792.5" y="399.4292">height: nr</text><text fill="#000000" font-family="sans-serif" font-size="11" lengthAdjust="spacingAndGlyphs" textLength="52" x="792.5" y="412.2339">depth: nr</text><text fill="#000000" font-family="sans-serif" font-size="11" lengthAdjust="spacingAndGlyphs" textLength="110" x="792.5" y="425.0386">circumference: +nr</text><text fill="#000000" font-family="sans-serif" font-size="11" lengthAdjust="spacingAndGlyphs" textLength="55" x="792.5" y="437.8433">area: +nr</text><text fill="#000000" font-family="sans-serif" font-size="11" lengthAdjust="spacingAndGlyphs" textLength="70" x="792.5" y="450.6479">volume: +nr</text><line style="stroke: #A80036; stroke-width: 1.5;" x1="787.5" x2="992.5" y1="457.2422" y2="457.2422"/><ellipse cx="797.5" cy="468.2422" fill="#84BE84" rx="3" ry="3" style="stroke: #038048; stroke-width: 1.0;"/><text fill="#000000" font-family="sans-serif" font-size="11" lengthAdjust="spacingAndGlyphs" textLength="181" x="806.5" y="471.4526">isInside(x: nr, y: nr, z: nr) : bool</text><ellipse cx="797.5" cy="481.0469" fill="#84BE84" rx="3" ry="3" style="stroke: #038048; stroke-width: 1.0;"/><text fill="#000000" font-family="sans-serif" font-size="11" lengthAdjust="spacingAndGlyphs" textLength="111" x="806.5" y="484.2573">isUnityCube() : bool</text><ellipse cx="797.5" cy="493.8516" fill="#84BE84" rx="3" ry="3" style="stroke: #038048; stroke-width: 1.0;"/><text fill="#000000" font-family="sans-serif" font-size="11" lengthAdjust="spacingAndGlyphs" textLength="130" x="806.5" y="497.062">draw(ax: Axis3D) : void</text><!--MD5=[e0e81cbe5b1e64e1a35501f927dc2c0b]
reverse link geometry_shapes.Shape.Shape to geometry_shapes.Circle.Circle--><path d="M315.12,234.68 C301.47,242.17 288.27,250.27 276,259 C247.05,279.6 220.12,307.96 198.57,334 " fill="none" id="geometry_shapes.Shape.Shape&lt;-geometry_shapes.Circle.Circle" style="stroke: #A80036; stroke-width: 1.0;"/><polygon fill="none" points="312.31,228.25,333.28,225.19,318.79,240.66,312.31,228.25" style="stroke: #A80036; stroke-width: 1.0;"/><!--MD5=[f21951b71304067651e076d90a173856]
reverse link geometry_shapes.Shape.Shape to geometry_shapes.Rectangle.Rectangle--><path d="M460.75,244.82 C447.96,269.4 433.87,296.5 421.03,321.18 " fill="none" id="geometry_shapes.Shape.Shape&lt;-geometry_shapes.Rectangle.Rectangle" style="stroke: #A80036; stroke-width: 1.0;"/><polygon fill="none" points="454.57,241.53,470,227.02,466.99,247.99,454.57,241.53" style="stroke: #A80036; stroke-width: 1.0;"/><!--MD5=[9eafb3a82cdb29ddfdce1f2fab3f3433]
reverse link geometry_shapes.Shape.Shape to geometry_shapes.Sphere.Sphere--><path d="M543.59,244.82 C556.47,269.4 570.69,296.5 583.63,321.18 " fill="none" id="geometry_shapes.Shape.Shape&lt;-geometry_shapes.Sphere.Sphere" style="stroke: #A80036; stroke-width: 1.0;"/><polygon fill="none" points="537.34,247.98,534.26,227.02,549.74,241.48,537.34,247.98" style="stroke: #A80036; stroke-width: 1.0;"/><!--MD5=[d2a64aeb9d05751301204f975cbd21ad]
reverse link geometry_shapes.Shape.Shape to geometry_shapes.Cube.Cube--><path d="M688.92,227.73 C708.79,237.08 728.21,247.5 746,259 C764.79,271.15 783.12,286.07 800.05,301.64 " fill="none" id="geometry_shapes.Shape.Shape&lt;-geometry_shapes.Cube.Cube" style="stroke: #A80036; stroke-width: 1.0;"/><polygon fill="none" points="685.93,234.06,670.59,219.45,691.7,221.31,685.93,234.06" style="stroke: #A80036; stroke-width: 1.0;"/><text fill="#888888" font-family="sans-serif" font-size="10" lengthAdjust="spacingAndGlyphs" textLength="67" x="500.5" y="579.2822">nr = int | float</text><!--MD5=[8e170c358f58df7eebdc4c1803314740]
@startuml geometry_shapes
namespace geometry_shapes {
  namespace Shape {}
  namespace Circle {}
  namespace Rectangle {}
  namespace Sphere {}
  namespace Cube {}
}

class geometry_shapes.Shape.Shape {
  + translate(x: nr, y: nr, *args: nr) : void
  + isGreater(other: Shape) : bool
  + isLess(other: Shape) : bool
  - _check_operand_type(calling: Shape, other: Any) : bool
  - _isValueOk(value: nr) : bool
  - _isSizeValueOk(value: nr) : bool
}

class geometry_shapes.Circle.Circle {
  x: nr
  y: nr
  radius: +nr
  circumference: +nr
  area: +nr
  + isInside(x: nr, y: nr) : bool
  + isUnityCircle() : bool
}

class geometry_shapes.Rectangle.Rectangle {
  x: nr
  y: nr
  side1: nr
  side2: nr
  circumference: +nr
  area: +nr
  + isInside(x: nr, y: nr) : bool
  + isSquare() : bool
  + draw(ax: Axis) : void
}

class geometry_shapes.Sphere.Sphere {
  x: nr
  y: nr
  z: nr
  radius: +nr
  circumference: +nr
  area: +nr
  volume: +nr
  + isInside(x: nr, y: nr, z: nr) : bool
  + isUnitySphere() : bool
}

class geometry_shapes.Cube.Cube {
  x: nr
  y: nr
  z: nr
  width: nr
  height: nr
  depth: nr
  circumference: +nr
  area: +nr
  volume: +nr
  + isInside(x: nr, y: nr, z: nr) : bool
  + isUnityCube() : bool
  + draw(ax: Axis3D) : void
}

geometry_shapes.Shape.Shape <|- - geometry_shapes.Circle.Circle
geometry_shapes.Shape.Shape <|- - geometry_shapes.Rectangle.Rectangle
geometry_shapes.Shape.Shape <|- - geometry_shapes.Sphere.Sphere
geometry_shapes.Shape.Shape <|- - geometry_shapes.Cube.Cube

footer nr = int | float
@enduml

PlantUML version 1.2020.02(Sun Mar 01 11:22:07 CET 2020)
(GPL source distribution)
Java Runtime: OpenJDK Runtime Environment
JVM: OpenJDK 64-Bit Server VM
Java Version: 11.0.20+8-post-Debian-1deb11u1
Operating System: Linux
Default Encoding: UTF-8
Language: en
Country: US
--></g></svg>