<?xml version="1.0" encoding="UTF-8" standalone="no"?><svg xmlns="http://www.w3.org/2000/svg" xmlns:xlink="http://www.w3.org/1999/xlink" contentScriptType="application/ecmascript" contentStyleType="text/css" height="438px" preserveAspectRatio="none" style="width:644px;height:438px;" version="1.1" viewBox="0 0 644 438" width="644px" zoomAndPan="magnify"><defs><filter height="300%" id="f2fphcv3ccqf" width="300%" x="-1" y="-1"><feGaussianBlur result="blurOut" stdDeviation="2.0"/><feColorMatrix in="blurOut" result="blurOut2" type="matrix" values="0 0 0 0 0 0 0 0 0 0 0 0 0 0 0 0 0 0 .4 0"/><feOffset dx="4.0" dy="4.0" in="blurOut2" result="blurOut3"/><feBlend in="SourceGraphic" in2="blurOut3" mode="normal"/></filter></defs><g><!--MD5=[11a9021428bc7d3f708de961744e4db9]
cluster geometry_shapes--><polygon fill="#FFFFFF" filter="url(#f2fphcv3ccqf)" points="22,24,168,24,175,46.2969,622,46.2969,622,390,22,390,22,24" style="stroke: #000000; stroke-width: 1.5;"/><line style="stroke: #000000; stroke-width: 1.5;" x1="22" x2="175" y1="46.2969" y2="46.2969"/><text fill="#000000" font-family="sans-serif" font-size="14" font-weight="bold" lengthAdjust="spacingAndGlyphs" textLength="140" x="26" y="38.9951">geometry_shapes</text><!--MD5=[10de8feead50549be551a1a7f63b4f25]
cluster geometry_shapes.Circle--><polygon fill="#FFFFFF" filter="url(#f2fphcv3ccqf)" points="46,209.5,97,209.5,104,231.7969,164,231.7969,164,346.5,46,346.5,46,209.5" style="stroke: #000000; stroke-width: 1.5;"/><line style="stroke: #000000; stroke-width: 1.5;" x1="46" x2="104" y1="231.7969" y2="231.7969"/><text fill="#000000" font-family="sans-serif" font-size="14" font-weight="bold" lengthAdjust="spacingAndGlyphs" textLength="45" x="50" y="224.4951">Circle</text><!--MD5=[156b21dc1f4e76fa01a9d6723e103c5e]
cluster geometry_shapes.Shape--><polygon fill="#FFFFFF" filter="url(#f2fphcv3ccqf)" points="267,67,322,67,329,89.2969,371,89.2969,371,166,267,166,267,67" style="stroke: #000000; stroke-width: 1.5;"/><line style="stroke: #000000; stroke-width: 1.5;" x1="267" x2="329" y1="89.2969" y2="89.2969"/><text fill="#000000" font-family="sans-serif" font-size="14" font-weight="bold" lengthAdjust="spacingAndGlyphs" textLength="49" x="271" y="81.9951">Shape</text><!--MD5=[252a6be53cfb5d77eee064331762a599]
cluster geometry_shapes.Cube--><polygon fill="#FFFFFF" filter="url(#f2fphcv3ccqf)" points="188,190,235,190,242,212.2969,304,212.2969,304,366,188,366,188,190" style="stroke: #000000; stroke-width: 1.5;"/><line style="stroke: #000000; stroke-width: 1.5;" x1="188" x2="242" y1="212.2969" y2="212.2969"/><text fill="#000000" font-family="sans-serif" font-size="14" font-weight="bold" lengthAdjust="spacingAndGlyphs" textLength="41" x="192" y="204.9951">Cube</text><!--MD5=[347179c8e315476df35dc6e766824529]
cluster geometry_shapes.Rectangle--><polygon fill="#FFFFFF" filter="url(#f2fphcv3ccqf)" points="328,203,412,203,419,225.2969,456,225.2969,456,353,328,353,328,203" style="stroke: #000000; stroke-width: 1.5;"/><line style="stroke: #000000; stroke-width: 1.5;" x1="328" x2="419" y1="225.2969" y2="225.2969"/><text fill="#000000" font-family="sans-serif" font-size="14" font-weight="bold" lengthAdjust="spacingAndGlyphs" textLength="78" x="332" y="217.9951">Rectangle</text><!--MD5=[c057c84db890e78babc74d44c3919382]
cluster geometry_shapes.Sphere--><polygon fill="#FFFFFF" filter="url(#f2fphcv3ccqf)" points="480,203,543,203,550,225.2969,598,225.2969,598,353,480,353,480,203" style="stroke: #000000; stroke-width: 1.5;"/><line style="stroke: #000000; stroke-width: 1.5;" x1="480" x2="550" y1="225.2969" y2="225.2969"/><text fill="#000000" font-family="sans-serif" font-size="14" font-weight="bold" lengthAdjust="spacingAndGlyphs" textLength="57" x="484" y="217.9951">Sphere</text><!--MD5=[dc970f2037899fe0bc6f013550eb2046]
class geometry_shapes.Circle.Circle--><rect fill="#FEFECE" filter="url(#f2fphcv3ccqf)" height="86.4141" id="geometry_shapes.Circle.Circle" style="stroke: #A80036; stroke-width: 1.5;" width="85" x="62.5" y="244.5"/><ellipse cx="86.05" cy="260.5" fill="#ADD1B2" rx="11" ry="11" style="stroke: #A80036; stroke-width: 1.0;"/><path d="M89.0188,266.1406 Q88.4406,266.4375 87.8,266.5781 Q87.1594,266.7344 86.4563,266.7344 Q83.9563,266.7344 82.6281,265.0938 Q81.3156,263.4375 81.3156,260.3125 Q81.3156,257.1875 82.6281,255.5313 Q83.9563,253.875 86.4563,253.875 Q87.1594,253.875 87.8,254.0313 Q88.4563,254.1875 89.0188,254.4844 L89.0188,257.2031 Q88.3938,256.625 87.8,256.3594 Q87.2063,256.0781 86.5813,256.0781 Q85.2375,256.0781 84.55,257.1563 Q83.8625,258.2188 83.8625,260.3125 Q83.8625,262.4063 84.55,263.4844 Q85.2375,264.5469 86.5813,264.5469 Q87.2063,264.5469 87.8,264.2813 Q88.3938,264 89.0188,263.4219 L89.0188,266.1406 Z "/><text fill="#000000" font-family="sans-serif" font-size="12" lengthAdjust="spacingAndGlyphs" textLength="34" x="101.95" y="264.6543">Circle</text><line style="stroke: #A80036; stroke-width: 1.5;" x1="63.5" x2="146.5" y1="276.5" y2="276.5"/><text fill="#000000" font-family="sans-serif" font-size="11" lengthAdjust="spacingAndGlyphs" textLength="43" x="68.5" y="290.7104">x: None</text><text fill="#000000" font-family="sans-serif" font-size="11" lengthAdjust="spacingAndGlyphs" textLength="43" x="68.5" y="303.5151">y: None</text><text fill="#000000" font-family="sans-serif" font-size="11" lengthAdjust="spacingAndGlyphs" textLength="73" x="68.5" y="316.3198">radius: None</text><line style="stroke: #A80036; stroke-width: 1.5;" x1="63.5" x2="146.5" y1="322.9141" y2="322.9141"/><!--MD5=[fd074987427ba837a991593c94943793]
class geometry_shapes.Shape.Shape--><rect fill="#FEFECE" filter="url(#f2fphcv3ccqf)" height="48" id="geometry_shapes.Shape.Shape" style="stroke: #A80036; stroke-width: 1.5;" width="72" x="283" y="102"/><ellipse cx="298" cy="118" fill="#ADD1B2" rx="11" ry="11" style="stroke: #A80036; stroke-width: 1.0;"/><path d="M300.9688,123.6406 Q300.3906,123.9375 299.75,124.0781 Q299.1094,124.2344 298.4063,124.2344 Q295.9063,124.2344 294.5781,122.5938 Q293.2656,120.9375 293.2656,117.8125 Q293.2656,114.6875 294.5781,113.0313 Q295.9063,111.375 298.4063,111.375 Q299.1094,111.375 299.75,111.5313 Q300.4063,111.6875 300.9688,111.9844 L300.9688,114.7031 Q300.3438,114.125 299.75,113.8594 Q299.1563,113.5781 298.5313,113.5781 Q297.1875,113.5781 296.5,114.6563 Q295.8125,115.7188 295.8125,117.8125 Q295.8125,119.9063 296.5,120.9844 Q297.1875,122.0469 298.5313,122.0469 Q299.1563,122.0469 299.75,121.7813 Q300.3438,121.5 300.9688,120.9219 L300.9688,123.6406 Z "/><text fill="#000000" font-family="sans-serif" font-size="12" lengthAdjust="spacingAndGlyphs" textLength="40" x="312" y="122.1543">Shape</text><line style="stroke: #A80036; stroke-width: 1.5;" x1="284" x2="354" y1="134" y2="134"/><line style="stroke: #A80036; stroke-width: 1.5;" x1="284" x2="354" y1="142" y2="142"/><!--MD5=[f3bd4cb2529738d5075283c2b0094908]
class geometry_shapes.Cube.Cube--><rect fill="#FEFECE" filter="url(#f2fphcv3ccqf)" height="124.8281" id="geometry_shapes.Cube.Cube" style="stroke: #A80036; stroke-width: 1.5;" width="84" x="204" y="225"/><ellipse cx="228" cy="241" fill="#ADD1B2" rx="11" ry="11" style="stroke: #A80036; stroke-width: 1.0;"/><path d="M230.9688,246.6406 Q230.3906,246.9375 229.75,247.0781 Q229.1094,247.2344 228.4063,247.2344 Q225.9063,247.2344 224.5781,245.5938 Q223.2656,243.9375 223.2656,240.8125 Q223.2656,237.6875 224.5781,236.0313 Q225.9063,234.375 228.4063,234.375 Q229.1094,234.375 229.75,234.5313 Q230.4063,234.6875 230.9688,234.9844 L230.9688,237.7031 Q230.3438,237.125 229.75,236.8594 Q229.1563,236.5781 228.5313,236.5781 Q227.1875,236.5781 226.5,237.6563 Q225.8125,238.7188 225.8125,240.8125 Q225.8125,242.9063 226.5,243.9844 Q227.1875,245.0469 228.5313,245.0469 Q229.1563,245.0469 229.75,244.7813 Q230.3438,244.5 230.9688,243.9219 L230.9688,246.6406 Z "/><text fill="#000000" font-family="sans-serif" font-size="12" lengthAdjust="spacingAndGlyphs" textLength="32" x="244" y="245.1543">Cube</text><line style="stroke: #A80036; stroke-width: 1.5;" x1="205" x2="287" y1="257" y2="257"/><text fill="#000000" font-family="sans-serif" font-size="11" lengthAdjust="spacingAndGlyphs" textLength="43" x="210" y="271.2104">x: None</text><text fill="#000000" font-family="sans-serif" font-size="11" lengthAdjust="spacingAndGlyphs" textLength="43" x="210" y="284.0151">y: None</text><text fill="#000000" font-family="sans-serif" font-size="11" lengthAdjust="spacingAndGlyphs" textLength="42" x="210" y="296.8198">z: None</text><text fill="#000000" font-family="sans-serif" font-size="11" lengthAdjust="spacingAndGlyphs" textLength="67" x="210" y="309.6245">width: None</text><text fill="#000000" font-family="sans-serif" font-size="11" lengthAdjust="spacingAndGlyphs" textLength="72" x="210" y="322.4292">height: None</text><text fill="#000000" font-family="sans-serif" font-size="11" lengthAdjust="spacingAndGlyphs" textLength="69" x="210" y="335.2339">depth: None</text><line style="stroke: #A80036; stroke-width: 1.5;" x1="205" x2="287" y1="341.8281" y2="341.8281"/><!--MD5=[61ecf50e5304e232c428298f2cedf035]
class geometry_shapes.Rectangle.Rectangle--><rect fill="#FEFECE" filter="url(#f2fphcv3ccqf)" height="99.2188" id="geometry_shapes.Rectangle.Rectangle" style="stroke: #A80036; stroke-width: 1.5;" width="95" x="344.5" y="238"/><ellipse cx="359.5" cy="254" fill="#ADD1B2" rx="11" ry="11" style="stroke: #A80036; stroke-width: 1.0;"/><path d="M362.4688,259.6406 Q361.8906,259.9375 361.25,260.0781 Q360.6094,260.2344 359.9063,260.2344 Q357.4063,260.2344 356.0781,258.5938 Q354.7656,256.9375 354.7656,253.8125 Q354.7656,250.6875 356.0781,249.0313 Q357.4063,247.375 359.9063,247.375 Q360.6094,247.375 361.25,247.5313 Q361.9063,247.6875 362.4688,247.9844 L362.4688,250.7031 Q361.8438,250.125 361.25,249.8594 Q360.6563,249.5781 360.0313,249.5781 Q358.6875,249.5781 358,250.6563 Q357.3125,251.7188 357.3125,253.8125 Q357.3125,255.9063 358,256.9844 Q358.6875,258.0469 360.0313,258.0469 Q360.6563,258.0469 361.25,257.7813 Q361.8438,257.5 362.4688,256.9219 L362.4688,259.6406 Z "/><text fill="#000000" font-family="sans-serif" font-size="12" lengthAdjust="spacingAndGlyphs" textLength="63" x="373.5" y="258.1543">Rectangle</text><line style="stroke: #A80036; stroke-width: 1.5;" x1="345.5" x2="438.5" y1="270" y2="270"/><text fill="#000000" font-family="sans-serif" font-size="11" lengthAdjust="spacingAndGlyphs" textLength="43" x="350.5" y="284.2104">x: None</text><text fill="#000000" font-family="sans-serif" font-size="11" lengthAdjust="spacingAndGlyphs" textLength="43" x="350.5" y="297.0151">y: None</text><text fill="#000000" font-family="sans-serif" font-size="11" lengthAdjust="spacingAndGlyphs" textLength="68" x="350.5" y="309.8198">side1: None</text><text fill="#000000" font-family="sans-serif" font-size="11" lengthAdjust="spacingAndGlyphs" textLength="68" x="350.5" y="322.6245">side2: None</text><line style="stroke: #A80036; stroke-width: 1.5;" x1="345.5" x2="438.5" y1="329.2188" y2="329.2188"/><!--MD5=[8db4a89e46803c06449c6933b1235f1b]
class geometry_shapes.Sphere.Sphere--><rect fill="#FEFECE" filter="url(#f2fphcv3ccqf)" height="99.2188" id="geometry_shapes.Sphere.Sphere" style="stroke: #A80036; stroke-width: 1.5;" width="85" x="496.5" y="238"/><ellipse cx="515.1" cy="254" fill="#ADD1B2" rx="11" ry="11" style="stroke: #A80036; stroke-width: 1.0;"/><path d="M518.0688,259.6406 Q517.4906,259.9375 516.85,260.0781 Q516.2094,260.2344 515.5063,260.2344 Q513.0063,260.2344 511.6781,258.5938 Q510.3656,256.9375 510.3656,253.8125 Q510.3656,250.6875 511.6781,249.0313 Q513.0063,247.375 515.5063,247.375 Q516.2094,247.375 516.85,247.5313 Q517.5063,247.6875 518.0688,247.9844 L518.0688,250.7031 Q517.4438,250.125 516.85,249.8594 Q516.2563,249.5781 515.6313,249.5781 Q514.2875,249.5781 513.6,250.6563 Q512.9125,251.7188 512.9125,253.8125 Q512.9125,255.9063 513.6,256.9844 Q514.2875,258.0469 515.6313,258.0469 Q516.2563,258.0469 516.85,257.7813 Q517.4438,257.5 518.0688,256.9219 L518.0688,259.6406 Z "/><text fill="#000000" font-family="sans-serif" font-size="12" lengthAdjust="spacingAndGlyphs" textLength="45" x="529.9" y="258.1543">Sphere</text><line style="stroke: #A80036; stroke-width: 1.5;" x1="497.5" x2="580.5" y1="270" y2="270"/><text fill="#000000" font-family="sans-serif" font-size="11" lengthAdjust="spacingAndGlyphs" textLength="43" x="502.5" y="284.2104">x: None</text><text fill="#000000" font-family="sans-serif" font-size="11" lengthAdjust="spacingAndGlyphs" textLength="43" x="502.5" y="297.0151">y: None</text><text fill="#000000" font-family="sans-serif" font-size="11" lengthAdjust="spacingAndGlyphs" textLength="42" x="502.5" y="309.8198">z: None</text><text fill="#000000" font-family="sans-serif" font-size="11" lengthAdjust="spacingAndGlyphs" textLength="73" x="502.5" y="322.6245">radius: None</text><line style="stroke: #A80036; stroke-width: 1.5;" x1="497.5" x2="580.5" y1="329.2188" y2="329.2188"/><!--MD5=[e0e81cbe5b1e64e1a35501f927dc2c0b]
reverse link geometry_shapes.Shape.Shape to geometry_shapes.Circle.Circle--><path d="M263.64,143.26 C238.96,152.2 210.46,164.98 188,182 C165.57,199 145.73,223.41 131.08,244.35 " fill="none" id="geometry_shapes.Shape.Shape&lt;-geometry_shapes.Circle.Circle" style="stroke: #A80036; stroke-width: 1.0;"/><polygon fill="none" points="261.65,136.54,282.84,136.78,266.13,149.81,261.65,136.54" style="stroke: #A80036; stroke-width: 1.0;"/><!--MD5=[d2a64aeb9d05751301204f975cbd21ad]
reverse link geometry_shapes.Shape.Shape to geometry_shapes.Cube.Cube--><path d="M299.95,168.61 C292.12,185.73 282.88,205.92 274.28,224.7 " fill="none" id="geometry_shapes.Shape.Shape&lt;-geometry_shapes.Cube.Cube" style="stroke: #A80036; stroke-width: 1.0;"/><polygon fill="none" points="293.7,165.47,308.39,150.19,306.43,171.29,293.7,165.47" style="stroke: #A80036; stroke-width: 1.0;"/><!--MD5=[f21951b71304067651e076d90a173856]
reverse link geometry_shapes.Shape.Shape to geometry_shapes.Rectangle.Rectangle--><path d="M337.98,168.48 C347.71,189.73 359.61,215.74 369.77,237.92 " fill="none" id="geometry_shapes.Shape.Shape&lt;-geometry_shapes.Rectangle.Rectangle" style="stroke: #A80036; stroke-width: 1.0;"/><polygon fill="none" points="331.57,171.29,329.61,150.19,344.3,165.47,331.57,171.29" style="stroke: #A80036; stroke-width: 1.0;"/><!--MD5=[9eafb3a82cdb29ddfdce1f2fab3f3433]
reverse link geometry_shapes.Shape.Shape to geometry_shapes.Sphere.Sphere--><path d="M374.15,141.88 C400.58,150.75 431.69,163.87 456,182 C476.34,197.16 494.46,218.47 508.55,237.9 " fill="none" id="geometry_shapes.Shape.Shape&lt;-geometry_shapes.Sphere.Sphere" style="stroke: #A80036; stroke-width: 1.0;"/><polygon fill="none" points="372.05,148.56,355.04,135.92,376.22,135.19,372.05,148.56" style="stroke: #A80036; stroke-width: 1.0;"/><text fill="#888888" font-family="sans-serif" font-size="10" lengthAdjust="spacingAndGlyphs" textLength="67" x="271.5" y="425.2822">Generated by</text><text fill="#888888" font-family="sans-serif" font-size="10" font-style="italic" lengthAdjust="spacingAndGlyphs" textLength="43" x="341.5" y="425.2822">py2puml</text><!--MD5=[d36a7a5b678587fef3ccce1970a7bbf1]
@startuml geometry_shapes
namespace geometry_shapes {
  namespace Circle {}
  namespace Shape {}
  namespace Cube {}
  namespace Rectangle {}
  namespace Sphere {}
}
class geometry_shapes.Circle.Circle {
  x: None
  y: None
  radius: None
}
class geometry_shapes.Shape.Shape {
}
class geometry_shapes.Cube.Cube {
  x: None
  y: None
  z: None
  width: None
  height: None
  depth: None
}
class geometry_shapes.Rectangle.Rectangle {
  x: None
  y: None
  side1: None
  side2: None
}
class geometry_shapes.Sphere.Sphere {
  x: None
  y: None
  z: None
  radius: None
}
geometry_shapes.Shape.Shape <|- - geometry_shapes.Circle.Circle
geometry_shapes.Shape.Shape <|- - geometry_shapes.Cube.Cube
geometry_shapes.Shape.Shape <|- - geometry_shapes.Rectangle.Rectangle
geometry_shapes.Shape.Shape <|- - geometry_shapes.Sphere.Sphere
footer Generated by //py2puml//
@enduml

PlantUML version 1.2020.02(Sun Mar 01 11:22:07 CET 2020)
(GPL source distribution)
Java Runtime: OpenJDK Runtime Environment
JVM: OpenJDK 64-Bit Server VM
Java Version: 11.0.20+8-post-Debian-1deb11u1
Operating System: Linux
Default Encoding: UTF-8
Language: en
Country: US
--></g></svg>