<?xml version="1.0" encoding="UTF-8" standalone="no"?><svg xmlns="http://www.w3.org/2000/svg" xmlns:xlink="http://www.w3.org/1999/xlink" contentScriptType="application/ecmascript" contentStyleType="text/css" height="668px" preserveAspectRatio="none" style="width:1088px;height:668px;" version="1.1" viewBox="0 0 1088 668" width="1088px" zoomAndPan="magnify"><defs><filter height="300%" id="f1w5zrjbu32qob" width="300%" x="-1" y="-1"><feGaussianBlur result="blurOut" stdDeviation="2.0"/><feColorMatrix in="blurOut" result="blurOut2" type="matrix" values="0 0 0 0 0 0 0 0 0 0 0 0 0 0 0 0 0 0 .4 0"/><feOffset dx="4.0" dy="4.0" in="blurOut2" result="blurOut3"/><feBlend in="SourceGraphic" in2="blurOut3" mode="normal"/></filter></defs><g><!--MD5=[11a9021428bc7d3f708de961744e4db9]
cluster geometry_shapes--><polygon fill="#FFFFFF" filter="url(#f1w5zrjbu32qob)" points="22,24,168,24,175,46.2969,1066,46.2969,1066,620,22,620,22,24" style="stroke: #000000; stroke-width: 1.5;"/><line style="stroke: #000000; stroke-width: 1.5;" x1="22" x2="175" y1="46.2969" y2="46.2969"/><text fill="#000000" font-family="sans-serif" font-size="14" font-weight="bold" lengthAdjust="spacingAndGlyphs" textLength="140" x="26" y="38.9951">geometry_shapes</text><!--MD5=[156b21dc1f4e76fa01a9d6723e103c5e]
cluster geometry_shapes.Shape--><polygon fill="#FFFFFF" filter="url(#f1w5zrjbu32qob)" points="342,67,397,67,404,89.2969,712,89.2969,712,268,342,268,342,67" style="stroke: #000000; stroke-width: 1.5;"/><line style="stroke: #000000; stroke-width: 1.5;" x1="342" x2="404" y1="89.2969" y2="89.2969"/><text fill="#000000" font-family="sans-serif" font-size="14" font-weight="bold" lengthAdjust="spacingAndGlyphs" textLength="49" x="346" y="81.9951">Shape</text><!--MD5=[10de8feead50549be551a1a7f63b4f25]
cluster geometry_shapes.Circle--><polygon fill="#FFFFFF" filter="url(#f1w5zrjbu32qob)" points="46,330.5,97,330.5,104,352.7969,256,352.7969,256,557.5,46,557.5,46,330.5" style="stroke: #000000; stroke-width: 1.5;"/><line style="stroke: #000000; stroke-width: 1.5;" x1="46" x2="104" y1="352.7969" y2="352.7969"/><text fill="#000000" font-family="sans-serif" font-size="14" font-weight="bold" lengthAdjust="spacingAndGlyphs" textLength="45" x="50" y="345.4951">Circle</text><!--MD5=[347179c8e315476df35dc6e766824529]
cluster geometry_shapes.Rectangle--><polygon fill="#FFFFFF" filter="url(#f1w5zrjbu32qob)" points="280,324,364,324,371,346.2969,514,346.2969,514,564,280,564,280,324" style="stroke: #000000; stroke-width: 1.5;"/><line style="stroke: #000000; stroke-width: 1.5;" x1="280" x2="371" y1="346.2969" y2="346.2969"/><text fill="#000000" font-family="sans-serif" font-size="14" font-weight="bold" lengthAdjust="spacingAndGlyphs" textLength="78" x="284" y="338.9951">Rectangle</text><!--MD5=[c057c84db890e78babc74d44c3919382]
cluster geometry_shapes.Sphere--><polygon fill="#FFFFFF" filter="url(#f1w5zrjbu32qob)" points="538,317.5,601,317.5,608,339.7969,778,339.7969,778,570.5,538,570.5,538,317.5" style="stroke: #000000; stroke-width: 1.5;"/><line style="stroke: #000000; stroke-width: 1.5;" x1="538" x2="608" y1="339.7969" y2="339.7969"/><text fill="#000000" font-family="sans-serif" font-size="14" font-weight="bold" lengthAdjust="spacingAndGlyphs" textLength="57" x="542" y="332.4951">Sphere</text><!--MD5=[252a6be53cfb5d77eee064331762a599]
cluster geometry_shapes.Cube--><polygon fill="#FFFFFF" filter="url(#f1w5zrjbu32qob)" points="802,292,849,292,856,314.2969,1042,314.2969,1042,596,802,596,802,292" style="stroke: #000000; stroke-width: 1.5;"/><line style="stroke: #000000; stroke-width: 1.5;" x1="802" x2="856" y1="314.2969" y2="314.2969"/><text fill="#000000" font-family="sans-serif" font-size="14" font-weight="bold" lengthAdjust="spacingAndGlyphs" textLength="41" x="806" y="306.9951">Cube</text><!--MD5=[fd074987427ba837a991593c94943793]
class geometry_shapes.Shape.Shape--><rect fill="#FEFECE" filter="url(#f1w5zrjbu32qob)" height="150.4375" id="geometry_shapes.Shape.Shape" style="stroke: #A80036; stroke-width: 1.5;" width="337" x="358.5" y="102"/><ellipse cx="502.75" cy="118" fill="#ADD1B2" rx="11" ry="11" style="stroke: #A80036; stroke-width: 1.0;"/><path d="M505.7188,123.6406 Q505.1406,123.9375 504.5,124.0781 Q503.8594,124.2344 503.1563,124.2344 Q500.6563,124.2344 499.3281,122.5938 Q498.0156,120.9375 498.0156,117.8125 Q498.0156,114.6875 499.3281,113.0313 Q500.6563,111.375 503.1563,111.375 Q503.8594,111.375 504.5,111.5313 Q505.1563,111.6875 505.7188,111.9844 L505.7188,114.7031 Q505.0938,114.125 504.5,113.8594 Q503.9063,113.5781 503.2813,113.5781 Q501.9375,113.5781 501.25,114.6563 Q500.5625,115.7188 500.5625,117.8125 Q500.5625,119.9063 501.25,120.9844 Q501.9375,122.0469 503.2813,122.0469 Q503.9063,122.0469 504.5,121.7813 Q505.0938,121.5 505.7188,120.9219 L505.7188,123.6406 Z "/><text fill="#000000" font-family="sans-serif" font-size="12" lengthAdjust="spacingAndGlyphs" textLength="40" x="523.25" y="122.1543">Shape</text><line style="stroke: #A80036; stroke-width: 1.5;" x1="359.5" x2="694.5" y1="134" y2="134"/><line style="stroke: #A80036; stroke-width: 1.5;" x1="359.5" x2="694.5" y1="142" y2="142"/><ellipse cx="369.5" cy="153" fill="#84BE84" rx="3" ry="3" style="stroke: #038048; stroke-width: 1.0;"/><text fill="#000000" font-family="sans-serif" font-size="11" lengthAdjust="spacingAndGlyphs" textLength="214" x="378.5" y="156.2104">translate(x: nr, y: nr, *args: nr) : void</text><rect fill="#F24D5C" height="6" style="stroke: #C82930; stroke-width: 1.0;" width="6" x="366.5" y="162.8047"/><text fill="#000000" font-family="sans-serif" font-size="11" lengthAdjust="spacingAndGlyphs" textLength="311" x="378.5" y="169.0151">_check_operand_type(calling: Shape, other: Any) : bool</text><rect fill="#F24D5C" height="6" style="stroke: #C82930; stroke-width: 1.0;" width="6" x="366.5" y="175.6094"/><text fill="#000000" font-family="sans-serif" font-size="11" lengthAdjust="spacingAndGlyphs" textLength="156" x="378.5" y="181.8198">_isValueOk(value: nr) : bool</text><rect fill="#F24D5C" height="6" style="stroke: #C82930; stroke-width: 1.0;" width="6" x="366.5" y="188.4141"/><text fill="#000000" font-family="sans-serif" font-size="11" lengthAdjust="spacingAndGlyphs" textLength="179" x="378.5" y="194.6245">_isSizeValueOk(value: nr) : bool</text><rect fill="#F24D5C" height="6" style="stroke: #C82930; stroke-width: 1.0;" width="6" x="366.5" y="201.2188"/><text fill="#000000" font-family="sans-serif" font-size="11" lengthAdjust="spacingAndGlyphs" textLength="153" x="378.5" y="207.4292">__gt__(other: Shape) : bool</text><rect fill="#F24D5C" height="6" style="stroke: #C82930; stroke-width: 1.0;" width="6" x="366.5" y="214.0234"/><text fill="#000000" font-family="sans-serif" font-size="11" lengthAdjust="spacingAndGlyphs" textLength="149" x="378.5" y="220.2339">__lt__(other: Shape) : bool</text><rect fill="#F24D5C" height="6" style="stroke: #C82930; stroke-width: 1.0;" width="6" x="366.5" y="226.8281"/><text fill="#000000" font-family="sans-serif" font-size="11" lengthAdjust="spacingAndGlyphs" textLength="156" x="378.5" y="233.0386">__ge__(other: Shape) : bool</text><rect fill="#F24D5C" height="6" style="stroke: #C82930; stroke-width: 1.0;" width="6" x="366.5" y="239.6328"/><text fill="#000000" font-family="sans-serif" font-size="11" lengthAdjust="spacingAndGlyphs" textLength="152" x="378.5" y="245.8433">__le__(other: Shape) : bool</text><!--MD5=[dc970f2037899fe0bc6f013550eb2046]
class geometry_shapes.Circle.Circle--><rect fill="#FEFECE" filter="url(#f1w5zrjbu32qob)" height="176.0469" id="geometry_shapes.Circle.Circle" style="stroke: #A80036; stroke-width: 1.5;" width="178" x="62" y="365.5"/><ellipse cx="129.75" cy="381.5" fill="#ADD1B2" rx="11" ry="11" style="stroke: #A80036; stroke-width: 1.0;"/><path d="M132.7188,387.1406 Q132.1406,387.4375 131.5,387.5781 Q130.8594,387.7344 130.1563,387.7344 Q127.6563,387.7344 126.3281,386.0938 Q125.0156,384.4375 125.0156,381.3125 Q125.0156,378.1875 126.3281,376.5313 Q127.6563,374.875 130.1563,374.875 Q130.8594,374.875 131.5,375.0313 Q132.1563,375.1875 132.7188,375.4844 L132.7188,378.2031 Q132.0938,377.625 131.5,377.3594 Q130.9063,377.0781 130.2813,377.0781 Q128.9375,377.0781 128.25,378.1563 Q127.5625,379.2188 127.5625,381.3125 Q127.5625,383.4063 128.25,384.4844 Q128.9375,385.5469 130.2813,385.5469 Q130.9063,385.5469 131.5,385.2813 Q132.0938,385 132.7188,384.4219 L132.7188,387.1406 Z "/><text fill="#000000" font-family="sans-serif" font-size="12" lengthAdjust="spacingAndGlyphs" textLength="34" x="150.25" y="385.6543">Circle</text><line style="stroke: #A80036; stroke-width: 1.5;" x1="63" x2="239" y1="397.5" y2="397.5"/><text fill="#000000" font-family="sans-serif" font-size="11" lengthAdjust="spacingAndGlyphs" textLength="26" x="68" y="411.7104">x: nr</text><text fill="#000000" font-family="sans-serif" font-size="11" lengthAdjust="spacingAndGlyphs" textLength="26" x="68" y="424.5151">y: nr</text><text fill="#000000" font-family="sans-serif" font-size="11" lengthAdjust="spacingAndGlyphs" textLength="65" x="68" y="437.3198">radius: +nr</text><text fill="#000000" font-family="sans-serif" font-size="11" lengthAdjust="spacingAndGlyphs" textLength="110" x="68" y="450.1245">circumference: +nr</text><text fill="#000000" font-family="sans-serif" font-size="11" lengthAdjust="spacingAndGlyphs" textLength="55" x="68" y="462.9292">area: +nr</text><line style="stroke: #A80036; stroke-width: 1.5;" x1="63" x2="239" y1="469.5234" y2="469.5234"/><ellipse cx="73" cy="480.5234" fill="#84BE84" rx="3" ry="3" style="stroke: #038048; stroke-width: 1.0;"/><text fill="#000000" font-family="sans-serif" font-size="11" lengthAdjust="spacingAndGlyphs" textLength="148" x="82" y="483.7339">isInside(x: nr, y: nr) : bool</text><ellipse cx="73" cy="493.3281" fill="#84BE84" rx="3" ry="3" style="stroke: #038048; stroke-width: 1.0;"/><text fill="#000000" font-family="sans-serif" font-size="11" lengthAdjust="spacingAndGlyphs" textLength="114" x="82" y="496.5386">isUnityCircle() : bool</text><ellipse cx="73" cy="506.1328" fill="#84BE84" rx="3" ry="3" style="stroke: #038048; stroke-width: 1.0;"/><text fill="#000000" font-family="sans-serif" font-size="11" lengthAdjust="spacingAndGlyphs" textLength="115" x="82" y="509.3433">draw(ax: Axis) : void</text><rect fill="#F24D5C" height="6" style="stroke: #C82930; stroke-width: 1.0;" width="6" x="70" y="515.9375"/><text fill="#000000" font-family="sans-serif" font-size="11" lengthAdjust="spacingAndGlyphs" textLength="152" x="82" y="522.1479">__eq__(other: Circle) : bool</text><rect fill="#F24D5C" height="6" style="stroke: #C82930; stroke-width: 1.0;" width="6" x="70" y="528.7422"/><text fill="#000000" font-family="sans-serif" font-size="11" lengthAdjust="spacingAndGlyphs" textLength="152" x="82" y="534.9526">__ne__(other: Circle) : bool</text><!--MD5=[61ecf50e5304e232c428298f2cedf035]
class geometry_shapes.Rectangle.Rectangle--><rect fill="#FEFECE" filter="url(#f1w5zrjbu32qob)" height="188.8516" id="geometry_shapes.Rectangle.Rectangle" style="stroke: #A80036; stroke-width: 1.5;" width="201" x="296.5" y="359"/><ellipse cx="361.25" cy="375" fill="#ADD1B2" rx="11" ry="11" style="stroke: #A80036; stroke-width: 1.0;"/><path d="M364.2188,380.6406 Q363.6406,380.9375 363,381.0781 Q362.3594,381.2344 361.6563,381.2344 Q359.1563,381.2344 357.8281,379.5938 Q356.5156,377.9375 356.5156,374.8125 Q356.5156,371.6875 357.8281,370.0313 Q359.1563,368.375 361.6563,368.375 Q362.3594,368.375 363,368.5313 Q363.6563,368.6875 364.2188,368.9844 L364.2188,371.7031 Q363.5938,371.125 363,370.8594 Q362.4063,370.5781 361.7813,370.5781 Q360.4375,370.5781 359.75,371.6563 Q359.0625,372.7188 359.0625,374.8125 Q359.0625,376.9063 359.75,377.9844 Q360.4375,379.0469 361.7813,379.0469 Q362.4063,379.0469 363,378.7813 Q363.5938,378.5 364.2188,377.9219 L364.2188,380.6406 Z "/><text fill="#000000" font-family="sans-serif" font-size="12" lengthAdjust="spacingAndGlyphs" textLength="63" x="381.75" y="379.1543">Rectangle</text><line style="stroke: #A80036; stroke-width: 1.5;" x1="297.5" x2="496.5" y1="391" y2="391"/><text fill="#000000" font-family="sans-serif" font-size="11" lengthAdjust="spacingAndGlyphs" textLength="26" x="302.5" y="405.2104">x: nr</text><text fill="#000000" font-family="sans-serif" font-size="11" lengthAdjust="spacingAndGlyphs" textLength="26" x="302.5" y="418.0151">y: nr</text><text fill="#000000" font-family="sans-serif" font-size="11" lengthAdjust="spacingAndGlyphs" textLength="51" x="302.5" y="430.8198">side1: nr</text><text fill="#000000" font-family="sans-serif" font-size="11" lengthAdjust="spacingAndGlyphs" textLength="51" x="302.5" y="443.6245">side2: nr</text><text fill="#000000" font-family="sans-serif" font-size="11" lengthAdjust="spacingAndGlyphs" textLength="110" x="302.5" y="456.4292">circumference: +nr</text><text fill="#000000" font-family="sans-serif" font-size="11" lengthAdjust="spacingAndGlyphs" textLength="55" x="302.5" y="469.2339">area: +nr</text><line style="stroke: #A80036; stroke-width: 1.5;" x1="297.5" x2="496.5" y1="475.8281" y2="475.8281"/><ellipse cx="307.5" cy="486.8281" fill="#84BE84" rx="3" ry="3" style="stroke: #038048; stroke-width: 1.0;"/><text fill="#000000" font-family="sans-serif" font-size="11" lengthAdjust="spacingAndGlyphs" textLength="148" x="316.5" y="490.0386">isInside(x: nr, y: nr) : bool</text><ellipse cx="307.5" cy="499.6328" fill="#84BE84" rx="3" ry="3" style="stroke: #038048; stroke-width: 1.0;"/><text fill="#000000" font-family="sans-serif" font-size="11" lengthAdjust="spacingAndGlyphs" textLength="95" x="316.5" y="502.8433">isSquare() : bool</text><ellipse cx="307.5" cy="512.4375" fill="#84BE84" rx="3" ry="3" style="stroke: #038048; stroke-width: 1.0;"/><text fill="#000000" font-family="sans-serif" font-size="11" lengthAdjust="spacingAndGlyphs" textLength="115" x="316.5" y="515.6479">draw(ax: Axis) : void</text><rect fill="#F24D5C" height="6" style="stroke: #C82930; stroke-width: 1.0;" width="6" x="304.5" y="522.2422"/><text fill="#000000" font-family="sans-serif" font-size="11" lengthAdjust="spacingAndGlyphs" textLength="175" x="316.5" y="528.4526">__eq__(other: Rectangle) : bool</text><rect fill="#F24D5C" height="6" style="stroke: #C82930; stroke-width: 1.0;" width="6" x="304.5" y="535.0469"/><text fill="#000000" font-family="sans-serif" font-size="11" lengthAdjust="spacingAndGlyphs" textLength="175" x="316.5" y="541.2573">__ne__(other: Rectangle) : bool</text><!--MD5=[8db4a89e46803c06449c6933b1235f1b]
class geometry_shapes.Sphere.Sphere--><rect fill="#FEFECE" filter="url(#f1w5zrjbu32qob)" height="201.6563" id="geometry_shapes.Sphere.Sphere" style="stroke: #A80036; stroke-width: 1.5;" width="207" x="554.5" y="352.5"/><ellipse cx="631.25" cy="368.5" fill="#ADD1B2" rx="11" ry="11" style="stroke: #A80036; stroke-width: 1.0;"/><path d="M634.2188,374.1406 Q633.6406,374.4375 633,374.5781 Q632.3594,374.7344 631.6563,374.7344 Q629.1563,374.7344 627.8281,373.0938 Q626.5156,371.4375 626.5156,368.3125 Q626.5156,365.1875 627.8281,363.5313 Q629.1563,361.875 631.6563,361.875 Q632.3594,361.875 633,362.0313 Q633.6563,362.1875 634.2188,362.4844 L634.2188,365.2031 Q633.5938,364.625 633,364.3594 Q632.4063,364.0781 631.7813,364.0781 Q630.4375,364.0781 629.75,365.1563 Q629.0625,366.2188 629.0625,368.3125 Q629.0625,370.4063 629.75,371.4844 Q630.4375,372.5469 631.7813,372.5469 Q632.4063,372.5469 633,372.2813 Q633.5938,372 634.2188,371.4219 L634.2188,374.1406 Z "/><text fill="#000000" font-family="sans-serif" font-size="12" lengthAdjust="spacingAndGlyphs" textLength="45" x="651.75" y="372.6543">Sphere</text><line style="stroke: #A80036; stroke-width: 1.5;" x1="555.5" x2="760.5" y1="384.5" y2="384.5"/><text fill="#000000" font-family="sans-serif" font-size="11" lengthAdjust="spacingAndGlyphs" textLength="26" x="560.5" y="398.7104">x: nr</text><text fill="#000000" font-family="sans-serif" font-size="11" lengthAdjust="spacingAndGlyphs" textLength="26" x="560.5" y="411.5151">y: nr</text><text fill="#000000" font-family="sans-serif" font-size="11" lengthAdjust="spacingAndGlyphs" textLength="25" x="560.5" y="424.3198">z: nr</text><text fill="#000000" font-family="sans-serif" font-size="11" lengthAdjust="spacingAndGlyphs" textLength="65" x="560.5" y="437.1245">radius: +nr</text><text fill="#000000" font-family="sans-serif" font-size="11" lengthAdjust="spacingAndGlyphs" textLength="110" x="560.5" y="449.9292">circumference: +nr</text><text fill="#000000" font-family="sans-serif" font-size="11" lengthAdjust="spacingAndGlyphs" textLength="55" x="560.5" y="462.7339">area: +nr</text><text fill="#000000" font-family="sans-serif" font-size="11" lengthAdjust="spacingAndGlyphs" textLength="70" x="560.5" y="475.5386">volume: +nr</text><line style="stroke: #A80036; stroke-width: 1.5;" x1="555.5" x2="760.5" y1="482.1328" y2="482.1328"/><ellipse cx="565.5" cy="493.1328" fill="#84BE84" rx="3" ry="3" style="stroke: #038048; stroke-width: 1.0;"/><text fill="#000000" font-family="sans-serif" font-size="11" lengthAdjust="spacingAndGlyphs" textLength="181" x="574.5" y="496.3433">isInside(x: nr, y: nr, z: nr) : bool</text><ellipse cx="565.5" cy="505.9375" fill="#84BE84" rx="3" ry="3" style="stroke: #038048; stroke-width: 1.0;"/><text fill="#000000" font-family="sans-serif" font-size="11" lengthAdjust="spacingAndGlyphs" textLength="123" x="574.5" y="509.1479">isUnitySphere() : bool</text><ellipse cx="565.5" cy="518.7422" fill="#84BE84" rx="3" ry="3" style="stroke: #038048; stroke-width: 1.0;"/><text fill="#000000" font-family="sans-serif" font-size="11" lengthAdjust="spacingAndGlyphs" textLength="134" x="574.5" y="521.9526">draw(ax: Axes3D) : void</text><rect fill="#F24D5C" height="6" style="stroke: #C82930; stroke-width: 1.0;" width="6" x="562.5" y="528.5469"/><text fill="#000000" font-family="sans-serif" font-size="11" lengthAdjust="spacingAndGlyphs" textLength="161" x="574.5" y="534.7573">__eq__(other: Sphere) : bool</text><rect fill="#F24D5C" height="6" style="stroke: #C82930; stroke-width: 1.0;" width="6" x="562.5" y="541.3516"/><text fill="#000000" font-family="sans-serif" font-size="11" lengthAdjust="spacingAndGlyphs" textLength="161" x="574.5" y="547.562">__ne__(other: Sphere) : bool</text><!--MD5=[f3bd4cb2529738d5075283c2b0094908]
class geometry_shapes.Cube.Cube--><rect fill="#FEFECE" filter="url(#f1w5zrjbu32qob)" height="252.875" id="geometry_shapes.Cube.Cube" style="stroke: #A80036; stroke-width: 1.5;" width="207" x="818.5" y="327"/><ellipse cx="901.75" cy="343" fill="#ADD1B2" rx="11" ry="11" style="stroke: #A80036; stroke-width: 1.0;"/><path d="M904.7188,348.6406 Q904.1406,348.9375 903.5,349.0781 Q902.8594,349.2344 902.1563,349.2344 Q899.6563,349.2344 898.3281,347.5938 Q897.0156,345.9375 897.0156,342.8125 Q897.0156,339.6875 898.3281,338.0313 Q899.6563,336.375 902.1563,336.375 Q902.8594,336.375 903.5,336.5313 Q904.1563,336.6875 904.7188,336.9844 L904.7188,339.7031 Q904.0938,339.125 903.5,338.8594 Q902.9063,338.5781 902.2813,338.5781 Q900.9375,338.5781 900.25,339.6563 Q899.5625,340.7188 899.5625,342.8125 Q899.5625,344.9063 900.25,345.9844 Q900.9375,347.0469 902.2813,347.0469 Q902.9063,347.0469 903.5,346.7813 Q904.0938,346.5 904.7188,345.9219 L904.7188,348.6406 Z "/><text fill="#000000" font-family="sans-serif" font-size="12" lengthAdjust="spacingAndGlyphs" textLength="32" x="922.25" y="347.1543">Cube</text><line style="stroke: #A80036; stroke-width: 1.5;" x1="819.5" x2="1024.5" y1="359" y2="359"/><text fill="#000000" font-family="sans-serif" font-size="11" lengthAdjust="spacingAndGlyphs" textLength="26" x="824.5" y="373.2104">x: nr</text><text fill="#000000" font-family="sans-serif" font-size="11" lengthAdjust="spacingAndGlyphs" textLength="26" x="824.5" y="386.0151">y: nr</text><text fill="#000000" font-family="sans-serif" font-size="11" lengthAdjust="spacingAndGlyphs" textLength="25" x="824.5" y="398.8198">z: nr</text><text fill="#000000" font-family="sans-serif" font-size="11" lengthAdjust="spacingAndGlyphs" textLength="50" x="824.5" y="411.6245">width: nr</text><text fill="#000000" font-family="sans-serif" font-size="11" lengthAdjust="spacingAndGlyphs" textLength="55" x="824.5" y="424.4292">height: nr</text><text fill="#000000" font-family="sans-serif" font-size="11" lengthAdjust="spacingAndGlyphs" textLength="52" x="824.5" y="437.2339">depth: nr</text><text fill="#000000" font-family="sans-serif" font-size="11" lengthAdjust="spacingAndGlyphs" textLength="110" x="824.5" y="450.0386">circumference: +nr</text><text fill="#000000" font-family="sans-serif" font-size="11" lengthAdjust="spacingAndGlyphs" textLength="55" x="824.5" y="462.8433">area: +nr</text><text fill="#000000" font-family="sans-serif" font-size="11" lengthAdjust="spacingAndGlyphs" textLength="70" x="824.5" y="475.6479">volume: +nr</text><line style="stroke: #A80036; stroke-width: 1.5;" x1="819.5" x2="1024.5" y1="482.2422" y2="482.2422"/><ellipse cx="829.5" cy="493.2422" fill="#84BE84" rx="3" ry="3" style="stroke: #038048; stroke-width: 1.0;"/><text fill="#000000" font-family="sans-serif" font-size="11" lengthAdjust="spacingAndGlyphs" textLength="181" x="838.5" y="496.4526">isInside(x: nr, y: nr, z: nr) : bool</text><ellipse cx="829.5" cy="506.0469" fill="#84BE84" rx="3" ry="3" style="stroke: #038048; stroke-width: 1.0;"/><text fill="#000000" font-family="sans-serif" font-size="11" lengthAdjust="spacingAndGlyphs" textLength="111" x="838.5" y="509.2573">isUnityCube() : bool</text><ellipse cx="829.5" cy="518.8516" fill="#84BE84" rx="3" ry="3" style="stroke: #038048; stroke-width: 1.0;"/><text fill="#000000" font-family="sans-serif" font-size="11" lengthAdjust="spacingAndGlyphs" textLength="83" x="838.5" y="522.062">isCube() : bool</text><ellipse cx="829.5" cy="531.6563" fill="#84BE84" rx="3" ry="3" style="stroke: #038048; stroke-width: 1.0;"/><text fill="#000000" font-family="sans-serif" font-size="11" lengthAdjust="spacingAndGlyphs" textLength="95" x="838.5" y="534.8667">isSquare() : bool</text><ellipse cx="829.5" cy="544.4609" fill="#84BE84" rx="3" ry="3" style="stroke: #038048; stroke-width: 1.0;"/><text fill="#000000" font-family="sans-serif" font-size="11" lengthAdjust="spacingAndGlyphs" textLength="134" x="838.5" y="547.6714">draw(ax: Axes3D) : void</text><rect fill="#F24D5C" height="6" style="stroke: #C82930; stroke-width: 1.0;" width="6" x="826.5" y="554.2656"/><text fill="#000000" font-family="sans-serif" font-size="11" lengthAdjust="spacingAndGlyphs" textLength="149" x="838.5" y="560.4761">__eq__(other: Cube) : bool</text><rect fill="#F24D5C" height="6" style="stroke: #C82930; stroke-width: 1.0;" width="6" x="826.5" y="567.0703"/><text fill="#000000" font-family="sans-serif" font-size="11" lengthAdjust="spacingAndGlyphs" textLength="149" x="838.5" y="573.2808">__ne__(other: Cube) : bool</text><!--MD5=[e0e81cbe5b1e64e1a35501f927dc2c0b]
reverse link geometry_shapes.Shape.Shape to geometry_shapes.Circle.Circle--><path d="M340.35,245.61 C319.05,256.89 298.41,269.67 280,284 C251.22,306.4 225.4,336.68 204.57,365.39 " fill="none" id="geometry_shapes.Shape.Shape&lt;-geometry_shapes.Circle.Circle" style="stroke: #A80036; stroke-width: 1.0;"/><polygon fill="none" points="337.36,239.28,358.36,236.48,343.69,251.77,337.36,239.28" style="stroke: #A80036; stroke-width: 1.0;"/><!--MD5=[f21951b71304067651e076d90a173856]
reverse link geometry_shapes.Shape.Shape to geometry_shapes.Rectangle.Rectangle--><path d="M483.18,270.54 C469.68,299.04 454.81,330.43 441.28,358.99 " fill="none" id="geometry_shapes.Shape.Shape&lt;-geometry_shapes.Rectangle.Rectangle" style="stroke: #A80036; stroke-width: 1.0;"/><polygon fill="none" points="476.93,267.36,491.82,252.28,489.59,273.36,476.93,267.36" style="stroke: #A80036; stroke-width: 1.0;"/><!--MD5=[9eafb3a82cdb29ddfdce1f2fab3f3433]
reverse link geometry_shapes.Shape.Shape to geometry_shapes.Sphere.Sphere--><path d="M571.15,270.51 C583.71,296.83 597.45,325.63 610.22,352.38 " fill="none" id="geometry_shapes.Shape.Shape&lt;-geometry_shapes.Sphere.Sphere" style="stroke: #A80036; stroke-width: 1.0;"/><polygon fill="none" points="564.75,273.35,562.45,252.28,577.38,267.32,564.75,273.35" style="stroke: #A80036; stroke-width: 1.0;"/><!--MD5=[d2a64aeb9d05751301204f975cbd21ad]
reverse link geometry_shapes.Shape.Shape to geometry_shapes.Cube.Cube--><path d="M713.73,245.2 C736.27,256.64 758.27,269.56 778,284 C794.93,296.38 811.17,311.13 826.26,326.67 " fill="none" id="geometry_shapes.Shape.Shape&lt;-geometry_shapes.Cube.Cube" style="stroke: #A80036; stroke-width: 1.0;"/><polygon fill="none" points="710.48,251.4,695.57,236.34,716.62,238.82,710.48,251.4" style="stroke: #A80036; stroke-width: 1.0;"/><text fill="#888888" font-family="sans-serif" font-size="10" lengthAdjust="spacingAndGlyphs" textLength="67" x="516.5" y="655.2822">nr = int | float</text><!--MD5=[1172c2216c7504b161b5d178848b1f65]
@startuml geometry_shapes
namespace geometry_shapes {
  namespace Shape {}
  namespace Circle {}
  namespace Rectangle {}
  namespace Sphere {}
  namespace Cube {}
}

class geometry_shapes.Shape.Shape {
  + translate(x: nr, y: nr, *args: nr) : void
  - _check_operand_type(calling: Shape, other: Any) : bool
  - _isValueOk(value: nr) : bool
  - _isSizeValueOk(value: nr) : bool
  - __gt__(other: Shape) : bool
  - __lt__(other: Shape) : bool
  - __ge__(other: Shape) : bool
  - __le__(other: Shape) : bool
}

class geometry_shapes.Circle.Circle {
  x: nr
  y: nr
  radius: +nr
  circumference: +nr
  area: +nr
  + isInside(x: nr, y: nr) : bool
  + isUnityCircle() : bool
  + draw(ax: Axis) : void
  - __eq__(other: Circle) : bool
  - __ne__(other: Circle) : bool
}

class geometry_shapes.Rectangle.Rectangle {
  x: nr
  y: nr
  side1: nr
  side2: nr
  circumference: +nr
  area: +nr
  + isInside(x: nr, y: nr) : bool
  + isSquare() : bool
  + draw(ax: Axis) : void
  - __eq__(other: Rectangle) : bool
  - __ne__(other: Rectangle) : bool
}

class geometry_shapes.Sphere.Sphere {
  x: nr
  y: nr
  z: nr
  radius: +nr
  circumference: +nr
  area: +nr
  volume: +nr
  + isInside(x: nr, y: nr, z: nr) : bool
  + isUnitySphere() : bool
  + draw(ax: Axes3D) : void
  - __eq__(other: Sphere) : bool
  - __ne__(other: Sphere) : bool
}

class geometry_shapes.Cube.Cube {
  x: nr
  y: nr
  z: nr
  width: nr
  height: nr
  depth: nr
  circumference: +nr
  area: +nr
  volume: +nr
  + isInside(x: nr, y: nr, z: nr) : bool
  + isUnityCube() : bool
  + isCube() : bool
  + isSquare() : bool
  + draw(ax: Axes3D) : void
  - __eq__(other: Cube) : bool
  - __ne__(other: Cube) : bool
}

geometry_shapes.Shape.Shape <|- - geometry_shapes.Circle.Circle
geometry_shapes.Shape.Shape <|- - geometry_shapes.Rectangle.Rectangle
geometry_shapes.Shape.Shape <|- - geometry_shapes.Sphere.Sphere
geometry_shapes.Shape.Shape <|- - geometry_shapes.Cube.Cube

footer nr = int | float
@enduml

PlantUML version 1.2020.02(Sun Mar 01 11:22:07 CET 2020)
(GPL source distribution)
Java Runtime: OpenJDK Runtime Environment
JVM: OpenJDK 64-Bit Server VM
Java Version: 11.0.20+8-post-Debian-1deb11u1
Operating System: Linux
Default Encoding: UTF-8
Language: en
Country: US
--></g></svg>