<?xml version="1.0" encoding="UTF-8" standalone="no"?><svg xmlns="http://www.w3.org/2000/svg" xmlns:xlink="http://www.w3.org/1999/xlink" contentScriptType="application/ecmascript" contentStyleType="text/css" height="617px" preserveAspectRatio="none" style="width:1156px;height:617px;" version="1.1" viewBox="0 0 1156 617" width="1156px" zoomAndPan="magnify"><defs><filter height="300%" id="f1wgmht0slujm6" width="300%" x="-1" y="-1"><feGaussianBlur result="blurOut" stdDeviation="2.0"/><feColorMatrix in="blurOut" result="blurOut2" type="matrix" values="0 0 0 0 0 0 0 0 0 0 0 0 0 0 0 0 0 0 .4 0"/><feOffset dx="4.0" dy="4.0" in="blurOut2" result="blurOut3"/><feBlend in="SourceGraphic" in2="blurOut3" mode="normal"/></filter></defs><g><!--MD5=[11a9021428bc7d3f708de961744e4db9]
cluster geometry_shapes--><polygon fill="#FFFFFF" filter="url(#f1wgmht0slujm6)" points="22,24,168,24,175,46.2969,1134,46.2969,1134,569,22,569,22,24" style="stroke: #000000; stroke-width: 1.5;"/><line style="stroke: #000000; stroke-width: 1.5;" x1="22" x2="175" y1="46.2969" y2="46.2969"/><text fill="#000000" font-family="sans-serif" font-size="14" font-weight="bold" lengthAdjust="spacingAndGlyphs" textLength="140" x="26" y="38.9951">geometry_shapes</text><!--MD5=[156b21dc1f4e76fa01a9d6723e103c5e]
cluster geometry_shapes.Shape--><polygon fill="#FFFFFF" filter="url(#f1wgmht0slujm6)" points="438,67,493,67,500,89.2969,758,89.2969,758,256,438,256,438,67" style="stroke: #000000; stroke-width: 1.5;"/><line style="stroke: #000000; stroke-width: 1.5;" x1="438" x2="500" y1="89.2969" y2="89.2969"/><text fill="#000000" font-family="sans-serif" font-size="14" font-weight="bold" lengthAdjust="spacingAndGlyphs" textLength="49" x="442" y="81.9951">Shape</text><!--MD5=[10de8feead50549be551a1a7f63b4f25]
cluster geometry_shapes.Circle--><polygon fill="#FFFFFF" filter="url(#f1wgmht0slujm6)" points="46,305.5,97,305.5,104,327.7969,334,327.7969,334,519.5,46,519.5,46,305.5" style="stroke: #000000; stroke-width: 1.5;"/><line style="stroke: #000000; stroke-width: 1.5;" x1="46" x2="104" y1="327.7969" y2="327.7969"/><text fill="#000000" font-family="sans-serif" font-size="14" font-weight="bold" lengthAdjust="spacingAndGlyphs" textLength="45" x="50" y="320.4951">Circle</text><!--MD5=[347179c8e315476df35dc6e766824529]
cluster geometry_shapes.Rectangle--><polygon fill="#FFFFFF" filter="url(#f1wgmht0slujm6)" points="358,292.5,442,292.5,449,314.7969,582,314.7969,582,532.5,358,532.5,358,292.5" style="stroke: #000000; stroke-width: 1.5;"/><line style="stroke: #000000; stroke-width: 1.5;" x1="358" x2="449" y1="314.7969" y2="314.7969"/><text fill="#000000" font-family="sans-serif" font-size="14" font-weight="bold" lengthAdjust="spacingAndGlyphs" textLength="78" x="362" y="307.4951">Rectangle</text><!--MD5=[c057c84db890e78babc74d44c3919382]
cluster geometry_shapes.Sphere--><polygon fill="#FFFFFF" filter="url(#f1wgmht0slujm6)" points="606,292.5,669,292.5,676,314.7969,846,314.7969,846,532.5,606,532.5,606,292.5" style="stroke: #000000; stroke-width: 1.5;"/><line style="stroke: #000000; stroke-width: 1.5;" x1="606" x2="676" y1="314.7969" y2="314.7969"/><text fill="#000000" font-family="sans-serif" font-size="14" font-weight="bold" lengthAdjust="spacingAndGlyphs" textLength="57" x="610" y="307.4951">Sphere</text><!--MD5=[252a6be53cfb5d77eee064331762a599]
cluster geometry_shapes.Cube--><polygon fill="#FFFFFF" filter="url(#f1wgmht0slujm6)" points="870,280,917,280,924,302.2969,1110,302.2969,1110,545,870,545,870,280" style="stroke: #000000; stroke-width: 1.5;"/><line style="stroke: #000000; stroke-width: 1.5;" x1="870" x2="924" y1="302.2969" y2="302.2969"/><text fill="#000000" font-family="sans-serif" font-size="14" font-weight="bold" lengthAdjust="spacingAndGlyphs" textLength="41" x="874" y="294.9951">Cube</text><!--MD5=[fd074987427ba837a991593c94943793]
class geometry_shapes.Shape.Shape--><rect fill="#FEFECE" filter="url(#f1wgmht0slujm6)" height="137.6328" id="geometry_shapes.Shape.Shape" style="stroke: #A80036; stroke-width: 1.5;" width="287" x="454.5" y="102"/><ellipse cx="573.75" cy="118" fill="#ADD1B2" rx="11" ry="11" style="stroke: #A80036; stroke-width: 1.0;"/><path d="M576.7188,123.6406 Q576.1406,123.9375 575.5,124.0781 Q574.8594,124.2344 574.1563,124.2344 Q571.6563,124.2344 570.3281,122.5938 Q569.0156,120.9375 569.0156,117.8125 Q569.0156,114.6875 570.3281,113.0313 Q571.6563,111.375 574.1563,111.375 Q574.8594,111.375 575.5,111.5313 Q576.1563,111.6875 576.7188,111.9844 L576.7188,114.7031 Q576.0938,114.125 575.5,113.8594 Q574.9063,113.5781 574.2813,113.5781 Q572.9375,113.5781 572.25,114.6563 Q571.5625,115.7188 571.5625,117.8125 Q571.5625,119.9063 572.25,120.9844 Q572.9375,122.0469 574.2813,122.0469 Q574.9063,122.0469 575.5,121.7813 Q576.0938,121.5 576.7188,120.9219 L576.7188,123.6406 Z "/><text fill="#000000" font-family="sans-serif" font-size="12" lengthAdjust="spacingAndGlyphs" textLength="40" x="594.25" y="122.1543">Shape</text><line style="stroke: #A80036; stroke-width: 1.5;" x1="455.5" x2="740.5" y1="134" y2="134"/><line style="stroke: #A80036; stroke-width: 1.5;" x1="455.5" x2="740.5" y1="142" y2="142"/><ellipse cx="465.5" cy="153" fill="#84BE84" rx="3" ry="3" style="stroke: #038048; stroke-width: 1.0;"/><text fill="#000000" font-family="sans-serif" font-size="11" lengthAdjust="spacingAndGlyphs" textLength="214" x="474.5" y="156.2104">translate(x: nr, y: nr, *args: nr) : void</text><ellipse cx="465.5" cy="165.8047" fill="#84BE84" rx="3" ry="3" style="stroke: #038048; stroke-width: 1.0;"/><text fill="#000000" font-family="sans-serif" font-size="11" lengthAdjust="spacingAndGlyphs" textLength="148" x="474.5" y="169.0151">isInside(x: nr, y: nr) : bool</text><ellipse cx="465.5" cy="178.6094" fill="#84BE84" rx="3" ry="3" style="stroke: #038048; stroke-width: 1.0;"/><text fill="#000000" font-family="sans-serif" font-size="11" lengthAdjust="spacingAndGlyphs" textLength="112" x="474.5" y="181.8198">draw(ax: Any) : void</text><ellipse cx="465.5" cy="191.4141" fill="#84BE84" rx="3" ry="3" style="stroke: #038048; stroke-width: 1.0;"/><text fill="#000000" font-family="sans-serif" font-size="11" lengthAdjust="spacingAndGlyphs" textLength="261" x="474.5" y="194.6245">isGreater(other: Common_supershape) : bool</text><ellipse cx="465.5" cy="204.2188" fill="#84BE84" rx="3" ry="3" style="stroke: #038048; stroke-width: 1.0;"/><text fill="#000000" font-family="sans-serif" font-size="11" lengthAdjust="spacingAndGlyphs" textLength="244" x="474.5" y="207.4292">isLess(other: Common_supershape) : bool</text><ellipse cx="465.5" cy="217.0234" fill="#84BE84" rx="3" ry="3" style="stroke: #038048; stroke-width: 1.0;"/><text fill="#000000" font-family="sans-serif" font-size="11" lengthAdjust="spacingAndGlyphs" textLength="156" x="474.5" y="220.2339">_isValueOk(value: nr) : bool</text><ellipse cx="465.5" cy="229.8281" fill="#84BE84" rx="3" ry="3" style="stroke: #038048; stroke-width: 1.0;"/><text fill="#000000" font-family="sans-serif" font-size="11" lengthAdjust="spacingAndGlyphs" textLength="179" x="474.5" y="233.0386">_isSizeValueOk(value: nr) : bool</text><!--MD5=[dc970f2037899fe0bc6f013550eb2046]
class geometry_shapes.Circle.Circle--><rect fill="#FEFECE" filter="url(#f1wgmht0slujm6)" height="163.2422" id="geometry_shapes.Circle.Circle" style="stroke: #A80036; stroke-width: 1.5;" width="256" x="62" y="340.5"/><ellipse cx="168.75" cy="356.5" fill="#ADD1B2" rx="11" ry="11" style="stroke: #A80036; stroke-width: 1.0;"/><path d="M171.7188,362.1406 Q171.1406,362.4375 170.5,362.5781 Q169.8594,362.7344 169.1563,362.7344 Q166.6563,362.7344 165.3281,361.0938 Q164.0156,359.4375 164.0156,356.3125 Q164.0156,353.1875 165.3281,351.5313 Q166.6563,349.875 169.1563,349.875 Q169.8594,349.875 170.5,350.0313 Q171.1563,350.1875 171.7188,350.4844 L171.7188,353.2031 Q171.0938,352.625 170.5,352.3594 Q169.9063,352.0781 169.2813,352.0781 Q167.9375,352.0781 167.25,353.1563 Q166.5625,354.2188 166.5625,356.3125 Q166.5625,358.4063 167.25,359.4844 Q167.9375,360.5469 169.2813,360.5469 Q169.9063,360.5469 170.5,360.2813 Q171.0938,360 171.7188,359.4219 L171.7188,362.1406 Z "/><text fill="#000000" font-family="sans-serif" font-size="12" lengthAdjust="spacingAndGlyphs" textLength="34" x="189.25" y="360.6543">Circle</text><line style="stroke: #A80036; stroke-width: 1.5;" x1="63" x2="317" y1="372.5" y2="372.5"/><text fill="#000000" font-family="sans-serif" font-size="11" lengthAdjust="spacingAndGlyphs" textLength="26" x="68" y="386.7104">x: nr</text><text fill="#000000" font-family="sans-serif" font-size="11" lengthAdjust="spacingAndGlyphs" textLength="26" x="68" y="399.5151">y: nr</text><text fill="#000000" font-family="sans-serif" font-size="11" lengthAdjust="spacingAndGlyphs" textLength="65" x="68" y="412.3198">radius: +nr</text><text fill="#000000" font-family="sans-serif" font-size="11" lengthAdjust="spacingAndGlyphs" textLength="110" x="68" y="425.1245">circumference: +nr</text><text fill="#000000" font-family="sans-serif" font-size="11" lengthAdjust="spacingAndGlyphs" textLength="55" x="68" y="437.9292">area: +nr</text><line style="stroke: #A80036; stroke-width: 1.5;" x1="63" x2="317" y1="444.5234" y2="444.5234"/><ellipse cx="73" cy="455.5234" fill="#84BE84" rx="3" ry="3" style="stroke: #038048; stroke-width: 1.0;"/><text fill="#000000" font-family="sans-serif" font-size="11" lengthAdjust="spacingAndGlyphs" textLength="173" x="82" y="458.7339">calculateArea(radius: +nr) : nr</text><ellipse cx="73" cy="468.3281" fill="#84BE84" rx="3" ry="3" style="stroke: #038048; stroke-width: 1.0;"/><text fill="#000000" font-family="sans-serif" font-size="11" lengthAdjust="spacingAndGlyphs" textLength="230" x="82" y="471.5386">calculateCircumference(radius: +nr) : nr</text><ellipse cx="73" cy="481.1328" fill="#84BE84" rx="3" ry="3" style="stroke: #038048; stroke-width: 1.0;"/><text fill="#000000" font-family="sans-serif" font-size="11" lengthAdjust="spacingAndGlyphs" textLength="148" x="82" y="484.3433">isInside(x: nr, y: nr) : bool</text><ellipse cx="73" cy="493.9375" fill="#84BE84" rx="3" ry="3" style="stroke: #038048; stroke-width: 1.0;"/><text fill="#000000" font-family="sans-serif" font-size="11" lengthAdjust="spacingAndGlyphs" textLength="114" x="82" y="497.1479">isUnityCircle() : bool</text><!--MD5=[61ecf50e5304e232c428298f2cedf035]
class geometry_shapes.Rectangle.Rectangle--><rect fill="#FEFECE" filter="url(#f1wgmht0slujm6)" height="188.8516" id="geometry_shapes.Rectangle.Rectangle" style="stroke: #A80036; stroke-width: 1.5;" width="191" x="374.5" y="327.5"/><ellipse cx="434.25" cy="343.5" fill="#ADD1B2" rx="11" ry="11" style="stroke: #A80036; stroke-width: 1.0;"/><path d="M437.2188,349.1406 Q436.6406,349.4375 436,349.5781 Q435.3594,349.7344 434.6563,349.7344 Q432.1563,349.7344 430.8281,348.0938 Q429.5156,346.4375 429.5156,343.3125 Q429.5156,340.1875 430.8281,338.5313 Q432.1563,336.875 434.6563,336.875 Q435.3594,336.875 436,337.0313 Q436.6563,337.1875 437.2188,337.4844 L437.2188,340.2031 Q436.5938,339.625 436,339.3594 Q435.4063,339.0781 434.7813,339.0781 Q433.4375,339.0781 432.75,340.1563 Q432.0625,341.2188 432.0625,343.3125 Q432.0625,345.4063 432.75,346.4844 Q433.4375,347.5469 434.7813,347.5469 Q435.4063,347.5469 436,347.2813 Q436.5938,347 437.2188,346.4219 L437.2188,349.1406 Z "/><text fill="#000000" font-family="sans-serif" font-size="12" lengthAdjust="spacingAndGlyphs" textLength="63" x="454.75" y="347.6543">Rectangle</text><line style="stroke: #A80036; stroke-width: 1.5;" x1="375.5" x2="564.5" y1="359.5" y2="359.5"/><text fill="#000000" font-family="sans-serif" font-size="11" lengthAdjust="spacingAndGlyphs" textLength="26" x="380.5" y="373.7104">x: nr</text><text fill="#000000" font-family="sans-serif" font-size="11" lengthAdjust="spacingAndGlyphs" textLength="26" x="380.5" y="386.5151">y: nr</text><text fill="#000000" font-family="sans-serif" font-size="11" lengthAdjust="spacingAndGlyphs" textLength="51" x="380.5" y="399.3198">side1: nr</text><text fill="#000000" font-family="sans-serif" font-size="11" lengthAdjust="spacingAndGlyphs" textLength="51" x="380.5" y="412.1245">side2: nr</text><text fill="#000000" font-family="sans-serif" font-size="11" lengthAdjust="spacingAndGlyphs" textLength="110" x="380.5" y="424.9292">circumference: +nr</text><text fill="#000000" font-family="sans-serif" font-size="11" lengthAdjust="spacingAndGlyphs" textLength="55" x="380.5" y="437.7339">area: +nr</text><line style="stroke: #A80036; stroke-width: 1.5;" x1="375.5" x2="564.5" y1="444.3281" y2="444.3281"/><ellipse cx="385.5" cy="455.3281" fill="#84BE84" rx="3" ry="3" style="stroke: #038048; stroke-width: 1.0;"/><text fill="#000000" font-family="sans-serif" font-size="11" lengthAdjust="spacingAndGlyphs" textLength="108" x="394.5" y="458.5386">calculateArea() : nr</text><ellipse cx="385.5" cy="468.1328" fill="#84BE84" rx="3" ry="3" style="stroke: #038048; stroke-width: 1.0;"/><text fill="#000000" font-family="sans-serif" font-size="11" lengthAdjust="spacingAndGlyphs" textLength="165" x="394.5" y="471.3433">calculateCircumference() : nr</text><ellipse cx="385.5" cy="480.9375" fill="#84BE84" rx="3" ry="3" style="stroke: #038048; stroke-width: 1.0;"/><text fill="#000000" font-family="sans-serif" font-size="11" lengthAdjust="spacingAndGlyphs" textLength="148" x="394.5" y="484.1479">isInside(x: nr, y: nr) : bool</text><ellipse cx="385.5" cy="493.7422" fill="#84BE84" rx="3" ry="3" style="stroke: #038048; stroke-width: 1.0;"/><text fill="#000000" font-family="sans-serif" font-size="11" lengthAdjust="spacingAndGlyphs" textLength="95" x="394.5" y="496.9526">isSquare() : bool</text><ellipse cx="385.5" cy="506.5469" fill="#84BE84" rx="3" ry="3" style="stroke: #038048; stroke-width: 1.0;"/><text fill="#000000" font-family="sans-serif" font-size="11" lengthAdjust="spacingAndGlyphs" textLength="115" x="394.5" y="509.7573">draw(ax: Axis) : void</text><!--MD5=[8db4a89e46803c06449c6933b1235f1b]
class geometry_shapes.Sphere.Sphere--><rect fill="#FEFECE" filter="url(#f1wgmht0slujm6)" height="188.8516" id="geometry_shapes.Sphere.Sphere" style="stroke: #A80036; stroke-width: 1.5;" width="207" x="622.5" y="327.5"/><ellipse cx="699.25" cy="343.5" fill="#ADD1B2" rx="11" ry="11" style="stroke: #A80036; stroke-width: 1.0;"/><path d="M702.2188,349.1406 Q701.6406,349.4375 701,349.5781 Q700.3594,349.7344 699.6563,349.7344 Q697.1563,349.7344 695.8281,348.0938 Q694.5156,346.4375 694.5156,343.3125 Q694.5156,340.1875 695.8281,338.5313 Q697.1563,336.875 699.6563,336.875 Q700.3594,336.875 701,337.0313 Q701.6563,337.1875 702.2188,337.4844 L702.2188,340.2031 Q701.5938,339.625 701,339.3594 Q700.4063,339.0781 699.7813,339.0781 Q698.4375,339.0781 697.75,340.1563 Q697.0625,341.2188 697.0625,343.3125 Q697.0625,345.4063 697.75,346.4844 Q698.4375,347.5469 699.7813,347.5469 Q700.4063,347.5469 701,347.2813 Q701.5938,347 702.2188,346.4219 L702.2188,349.1406 Z "/><text fill="#000000" font-family="sans-serif" font-size="12" lengthAdjust="spacingAndGlyphs" textLength="45" x="719.75" y="347.6543">Sphere</text><line style="stroke: #A80036; stroke-width: 1.5;" x1="623.5" x2="828.5" y1="359.5" y2="359.5"/><text fill="#000000" font-family="sans-serif" font-size="11" lengthAdjust="spacingAndGlyphs" textLength="26" x="628.5" y="373.7104">x: nr</text><text fill="#000000" font-family="sans-serif" font-size="11" lengthAdjust="spacingAndGlyphs" textLength="26" x="628.5" y="386.5151">y: nr</text><text fill="#000000" font-family="sans-serif" font-size="11" lengthAdjust="spacingAndGlyphs" textLength="25" x="628.5" y="399.3198">z: nr</text><text fill="#000000" font-family="sans-serif" font-size="11" lengthAdjust="spacingAndGlyphs" textLength="65" x="628.5" y="412.1245">radius: +nr</text><text fill="#000000" font-family="sans-serif" font-size="11" lengthAdjust="spacingAndGlyphs" textLength="110" x="628.5" y="424.9292">circumference: +nr</text><text fill="#000000" font-family="sans-serif" font-size="11" lengthAdjust="spacingAndGlyphs" textLength="55" x="628.5" y="437.7339">area: +nr</text><text fill="#000000" font-family="sans-serif" font-size="11" lengthAdjust="spacingAndGlyphs" textLength="70" x="628.5" y="450.5386">volume: +nr</text><line style="stroke: #A80036; stroke-width: 1.5;" x1="623.5" x2="828.5" y1="457.1328" y2="457.1328"/><ellipse cx="633.5" cy="468.1328" fill="#84BE84" rx="3" ry="3" style="stroke: #038048; stroke-width: 1.0;"/><text fill="#000000" font-family="sans-serif" font-size="11" lengthAdjust="spacingAndGlyphs" textLength="124" x="642.5" y="471.3433">calculateVolume() : nr</text><ellipse cx="633.5" cy="480.9375" fill="#84BE84" rx="3" ry="3" style="stroke: #038048; stroke-width: 1.0;"/><text fill="#000000" font-family="sans-serif" font-size="11" lengthAdjust="spacingAndGlyphs" textLength="181" x="642.5" y="484.1479">isInside(x: nr, y: nr, z: nr) : bool</text><ellipse cx="633.5" cy="493.7422" fill="#84BE84" rx="3" ry="3" style="stroke: #038048; stroke-width: 1.0;"/><text fill="#000000" font-family="sans-serif" font-size="11" lengthAdjust="spacingAndGlyphs" textLength="123" x="642.5" y="496.9526">isUnitySphere() : bool</text><ellipse cx="633.5" cy="506.5469" fill="#84BE84" rx="3" ry="3" style="stroke: #038048; stroke-width: 1.0;"/><text fill="#000000" font-family="sans-serif" font-size="11" lengthAdjust="spacingAndGlyphs" textLength="130" x="642.5" y="509.7573">draw(ax: Axis3D) : void</text><!--MD5=[f3bd4cb2529738d5075283c2b0094908]
class geometry_shapes.Cube.Cube--><rect fill="#FEFECE" filter="url(#f1wgmht0slujm6)" height="214.4609" id="geometry_shapes.Cube.Cube" style="stroke: #A80036; stroke-width: 1.5;" width="207" x="886.5" y="315"/><ellipse cx="969.75" cy="331" fill="#ADD1B2" rx="11" ry="11" style="stroke: #A80036; stroke-width: 1.0;"/><path d="M972.7188,336.6406 Q972.1406,336.9375 971.5,337.0781 Q970.8594,337.2344 970.1563,337.2344 Q967.6563,337.2344 966.3281,335.5938 Q965.0156,333.9375 965.0156,330.8125 Q965.0156,327.6875 966.3281,326.0313 Q967.6563,324.375 970.1563,324.375 Q970.8594,324.375 971.5,324.5313 Q972.1563,324.6875 972.7188,324.9844 L972.7188,327.7031 Q972.0938,327.125 971.5,326.8594 Q970.9063,326.5781 970.2813,326.5781 Q968.9375,326.5781 968.25,327.6563 Q967.5625,328.7188 967.5625,330.8125 Q967.5625,332.9063 968.25,333.9844 Q968.9375,335.0469 970.2813,335.0469 Q970.9063,335.0469 971.5,334.7813 Q972.0938,334.5 972.7188,333.9219 L972.7188,336.6406 Z "/><text fill="#000000" font-family="sans-serif" font-size="12" lengthAdjust="spacingAndGlyphs" textLength="32" x="990.25" y="335.1543">Cube</text><line style="stroke: #A80036; stroke-width: 1.5;" x1="887.5" x2="1092.5" y1="347" y2="347"/><text fill="#000000" font-family="sans-serif" font-size="11" lengthAdjust="spacingAndGlyphs" textLength="26" x="892.5" y="361.2104">x: nr</text><text fill="#000000" font-family="sans-serif" font-size="11" lengthAdjust="spacingAndGlyphs" textLength="26" x="892.5" y="374.0151">y: nr</text><text fill="#000000" font-family="sans-serif" font-size="11" lengthAdjust="spacingAndGlyphs" textLength="25" x="892.5" y="386.8198">z: nr</text><text fill="#000000" font-family="sans-serif" font-size="11" lengthAdjust="spacingAndGlyphs" textLength="50" x="892.5" y="399.6245">width: nr</text><text fill="#000000" font-family="sans-serif" font-size="11" lengthAdjust="spacingAndGlyphs" textLength="55" x="892.5" y="412.4292">height: nr</text><text fill="#000000" font-family="sans-serif" font-size="11" lengthAdjust="spacingAndGlyphs" textLength="52" x="892.5" y="425.2339">depth: nr</text><text fill="#000000" font-family="sans-serif" font-size="11" lengthAdjust="spacingAndGlyphs" textLength="110" x="892.5" y="438.0386">circumference: +nr</text><text fill="#000000" font-family="sans-serif" font-size="11" lengthAdjust="spacingAndGlyphs" textLength="55" x="892.5" y="450.8433">area: +nr</text><text fill="#000000" font-family="sans-serif" font-size="11" lengthAdjust="spacingAndGlyphs" textLength="70" x="892.5" y="463.6479">volume: +nr</text><line style="stroke: #A80036; stroke-width: 1.5;" x1="887.5" x2="1092.5" y1="470.2422" y2="470.2422"/><ellipse cx="897.5" cy="481.2422" fill="#84BE84" rx="3" ry="3" style="stroke: #038048; stroke-width: 1.0;"/><text fill="#000000" font-family="sans-serif" font-size="11" lengthAdjust="spacingAndGlyphs" textLength="124" x="906.5" y="484.4526">calculateVolume() : nr</text><ellipse cx="897.5" cy="494.0469" fill="#84BE84" rx="3" ry="3" style="stroke: #038048; stroke-width: 1.0;"/><text fill="#000000" font-family="sans-serif" font-size="11" lengthAdjust="spacingAndGlyphs" textLength="181" x="906.5" y="497.2573">isInside(x: nr, y: nr, z: nr) : bool</text><ellipse cx="897.5" cy="506.8516" fill="#84BE84" rx="3" ry="3" style="stroke: #038048; stroke-width: 1.0;"/><text fill="#000000" font-family="sans-serif" font-size="11" lengthAdjust="spacingAndGlyphs" textLength="111" x="906.5" y="510.062">isUnityCube() : bool</text><ellipse cx="897.5" cy="519.6563" fill="#84BE84" rx="3" ry="3" style="stroke: #038048; stroke-width: 1.0;"/><text fill="#000000" font-family="sans-serif" font-size="11" lengthAdjust="spacingAndGlyphs" textLength="130" x="906.5" y="522.8667">draw(ax: Axis3D) : void</text><!--MD5=[e0e81cbe5b1e64e1a35501f927dc2c0b]
reverse link geometry_shapes.Shape.Shape to geometry_shapes.Circle.Circle--><path d="M435.75,230.95 C409.01,243.09 382.16,256.85 358,272 C327.28,291.26 296.71,316.2 270.24,340.13 " fill="none" id="geometry_shapes.Shape.Shape&lt;-geometry_shapes.Circle.Circle" style="stroke: #A80036; stroke-width: 1.0;"/><polygon fill="none" points="433.09,224.47,454.21,222.81,438.73,237.28,433.09,224.47" style="stroke: #A80036; stroke-width: 1.0;"/><!--MD5=[f21951b71304067651e076d90a173856]
reverse link geometry_shapes.Shape.Shape to geometry_shapes.Rectangle.Rectangle--><path d="M553.82,257.95 C542.3,280.35 529.84,304.6 518.13,327.37 " fill="none" id="geometry_shapes.Shape.Shape&lt;-geometry_shapes.Rectangle.Rectangle" style="stroke: #A80036; stroke-width: 1.0;"/><polygon fill="none" points="547.65,254.63,563.02,240.04,560.11,261.03,547.65,254.63" style="stroke: #A80036; stroke-width: 1.0;"/><!--MD5=[9eafb3a82cdb29ddfdce1f2fab3f3433]
reverse link geometry_shapes.Shape.Shape to geometry_shapes.Sphere.Sphere--><path d="M642.18,257.95 C653.7,280.35 666.16,304.6 677.87,327.37 " fill="none" id="geometry_shapes.Shape.Shape&lt;-geometry_shapes.Sphere.Sphere" style="stroke: #A80036; stroke-width: 1.0;"/><polygon fill="none" points="635.89,261.03,632.98,240.04,648.35,254.63,635.89,261.03" style="stroke: #A80036; stroke-width: 1.0;"/><!--MD5=[d2a64aeb9d05751301204f975cbd21ad]
reverse link geometry_shapes.Shape.Shape to geometry_shapes.Cube.Cube--><path d="M760.02,225.86 C789.77,238.89 819.7,254.28 846,272 C864.2,284.26 881.9,299.14 898.31,314.69 " fill="none" id="geometry_shapes.Shape.Shape&lt;-geometry_shapes.Cube.Cube" style="stroke: #A80036; stroke-width: 1.0;"/><polygon fill="none" points="757.25,232.29,741.56,218.05,762.71,219.4,757.25,232.29" style="stroke: #A80036; stroke-width: 1.0;"/><text fill="#888888" font-family="sans-serif" font-size="10" lengthAdjust="spacingAndGlyphs" textLength="67" x="550.5" y="604.2822">nr = int | float</text><!--MD5=[c2af179978311406aa32cc585565bff4]
@startuml geometry_shapes
namespace geometry_shapes {
  namespace Shape {}
  namespace Circle {}
  namespace Rectangle {}
  namespace Sphere {}
  namespace Cube {}
}

class geometry_shapes.Shape.Shape {
  + translate(x: nr, y: nr, *args: nr) : void
  + isInside(x: nr, y: nr) : bool
  + draw(ax: Any) : void
  + isGreater(other: Common_supershape) : bool
  + isLess(other: Common_supershape) : bool
  + _isValueOk(value: nr) : bool
  + _isSizeValueOk(value: nr) : bool
}

class geometry_shapes.Circle.Circle {
  x: nr
  y: nr
  radius: +nr
  circumference: +nr
  area: +nr
  + calculateArea(radius: +nr) : nr
  + calculateCircumference(radius: +nr) : nr
  + isInside(x: nr, y: nr) : bool
  + isUnityCircle() : bool
}

class geometry_shapes.Rectangle.Rectangle {
  x: nr
  y: nr
  side1: nr
  side2: nr
  circumference: +nr
  area: +nr
  + calculateArea() : nr
  + calculateCircumference() : nr
  + isInside(x: nr, y: nr) : bool
  + isSquare() : bool
  + draw(ax: Axis) : void
}

class geometry_shapes.Sphere.Sphere {
  x: nr
  y: nr
  z: nr
  radius: +nr
  circumference: +nr
  area: +nr
  volume: +nr
  + calculateVolume() : nr
  + isInside(x: nr, y: nr, z: nr) : bool
  + isUnitySphere() : bool
  + draw(ax: Axis3D) : void
}

class geometry_shapes.Cube.Cube {
  x: nr
  y: nr
  z: nr
  width: nr
  height: nr
  depth: nr
  circumference: +nr
  area: +nr
  volume: +nr
  + calculateVolume() : nr
  + isInside(x: nr, y: nr, z: nr) : bool
  + isUnityCube() : bool
  + draw(ax: Axis3D) : void
}

geometry_shapes.Shape.Shape <|- - geometry_shapes.Circle.Circle
geometry_shapes.Shape.Shape <|- - geometry_shapes.Rectangle.Rectangle
geometry_shapes.Shape.Shape <|- - geometry_shapes.Sphere.Sphere
geometry_shapes.Shape.Shape <|- - geometry_shapes.Cube.Cube
footer nr = int | float
@enduml

PlantUML version 1.2020.02(Sun Mar 01 11:22:07 CET 2020)
(GPL source distribution)
Java Runtime: OpenJDK Runtime Environment
JVM: OpenJDK 64-Bit Server VM
Java Version: 11.0.20+8-post-Debian-1deb11u1
Operating System: Linux
Default Encoding: UTF-8
Language: en
Country: US
--></g></svg>